<svg xmlns="http://www.w3.org/2000/svg" xmlns:xlink="http://www.w3.org/1999/xlink" width="108" height="108" viewBox="0 0 108 108">
  <defs>
    <filter id="Trazado_982547" x="0" y="0" width="108" height="108" filterUnits="userSpaceOnUse">
      <feOffset dy="3" input="SourceAlpha"/>
      <feGaussianBlur stdDeviation="3" result="blur"/>
      <feFlood flood-opacity="0.161"/>
      <feComposite operator="in" in2="blur"/>
      <feComposite in="SourceGraphic"/>
    </filter>
  </defs>
  <g id="Grupo_1159847" data-name="Grupo 1159847" transform="translate(-173 -1221)">
    <g id="Grupo_1153207" data-name="Grupo 1153207" transform="translate(12 -231)">
      <g id="Grupo_1153117" data-name="Grupo 1153117" transform="translate(-93 939)">
        <g id="Grupo_1149598" data-name="Grupo 1149598" transform="translate(80 315)">
          <g id="Grupo_1148770" data-name="Grupo 1148770" transform="translate(-27 -2583)">
            <g id="Grupo_1146954" data-name="Grupo 1146954" transform="translate(-415 -1202)">
              <g transform="matrix(1, 0, 0, 1, 616, 3983)" filter="url(#Trazado_982547)">
                <g id="Trazado_982547-2" data-name="Trazado 982547" transform="translate(9 6)" fill="#eff5f8">
                  <path d="M 45 88.5 C 39.12687683105469 88.5 33.43022537231445 87.35007476806641 28.06830024719238 85.08217620849609 C 22.88852500915527 82.89131164550781 18.23629951477051 79.75458526611328 14.2408504486084 75.75914764404297 C 10.24541282653809 71.76370239257812 7.108687400817871 67.11147308349609 4.917825222015381 61.93170166015625 C 2.649924993515015 56.56977462768555 1.5 50.87312316894531 1.5 45 C 1.5 39.12687683105469 2.649924993515015 33.43022537231445 4.917825222015381 28.06830024719238 C 7.108687400817871 22.88852500915527 10.24541282653809 18.23629951477051 14.2408504486084 14.2408504486084 C 18.23629951477051 10.24541282653809 22.88852500915527 7.108687400817871 28.06830024719238 4.917825222015381 C 33.43022537231445 2.649924993515015 39.12687683105469 1.5 45 1.5 C 50.87312316894531 1.5 56.56977462768555 2.649924993515015 61.93170166015625 4.917825222015381 C 67.11147308349609 7.108687400817871 71.76370239257812 10.24541282653809 75.75914764404297 14.2408504486084 C 79.75458526611328 18.23629951477051 82.89131164550781 22.88852500915527 85.08217620849609 28.06830024719238 C 87.35007476806641 33.43022537231445 88.5 39.12687683105469 88.5 45 C 88.5 50.87312316894531 87.35007476806641 56.56977462768555 85.08217620849609 61.93170166015625 C 82.89131164550781 67.11147308349609 79.75458526611328 71.76370239257812 75.75914764404297 75.75914764404297 C 71.76370239257812 79.75458526611328 67.11147308349609 82.89131164550781 61.93170166015625 85.08217620849609 C 56.56977462768555 87.35007476806641 50.87312316894531 88.5 45 88.5 Z" stroke="none"/>
                  <path d="M 45 3 C 39.32871246337891 3 33.82865524291992 4.110054016113281 28.65262985229492 6.299339294433594 C 23.65165710449219 8.414573669433594 19.15968322753906 11.44334411621094 15.301513671875 15.301513671875 C 11.44334411621094 19.15968322753906 8.414573669433594 23.65165710449219 6.299339294433594 28.65262985229492 C 4.110054016113281 33.82865524291992 3 39.32871246337891 3 45 C 3 50.67128753662109 4.110054016113281 56.17134475708008 6.299339294433594 61.34737396240234 C 8.414573669433594 66.34834289550781 11.44334411621094 70.84031677246094 15.301513671875 74.698486328125 C 19.15968322753906 78.55665588378906 23.65165710449219 81.58542633056641 28.65262985229492 83.70066070556641 C 33.82865524291992 85.88994598388672 39.32871246337891 87 45 87 C 50.67128753662109 87 56.17134475708008 85.88994598388672 61.34737396240234 83.70066070556641 C 66.34834289550781 81.58542633056641 70.84031677246094 78.55665588378906 74.698486328125 74.698486328125 C 78.55665588378906 70.84031677246094 81.58542633056641 66.34834289550781 83.70066070556641 61.34737396240234 C 85.88994598388672 56.17134475708008 87 50.67128753662109 87 45 C 87 39.32871246337891 85.88994598388672 33.82865524291992 83.70066070556641 28.65262985229492 C 81.58542633056641 23.65165710449219 78.55665588378906 19.15968322753906 74.698486328125 15.301513671875 C 70.84031677246094 11.44334411621094 66.34834289550781 8.414573669433594 61.34737396240234 6.299339294433594 C 56.17134475708008 4.110054016113281 50.67128753662109 3 45 3 M 45 0 C 69.85281372070312 0 90 20.14718627929688 90 45 C 90 69.85281372070312 69.85281372070312 90 45 90 C 20.14718627929688 90 0 69.85281372070312 0 45 C 0 20.14718627929688 20.14718627929688 0 45 0 Z" stroke="none" fill="#3b596a"/>
                </g>
              </g>
            </g>
          </g>
        </g>
      </g>
    </g>
    <g id="marketing" transform="translate(196.652 1241.996)">
      <g id="Grupo_1159846" data-name="Grupo 1159846" transform="translate(0.955 0.952)">
        <g id="Grupo_1159843" data-name="Grupo 1159843">
          <path id="Trazado_992326" data-name="Trazado 992326" d="M37.4,59.418A3.684,3.684,0,1,1,33.717,63.1,3.684,3.684,0,0,1,37.4,59.418ZM59.425,37.394a3.684,3.684,0,1,1,3.684,3.684A3.684,3.684,0,0,1,59.425,37.394Zm-51.416,0a3.684,3.684,0,1,1,3.684,3.684A3.684,3.684,0,0,1,8.009,37.394ZM37.4,8a3.684,3.684,0,1,1-3.684,3.684A3.684,3.684,0,0,1,37.4,8Z" transform="translate(-8.009 -8.002)" fill="#ffe177" fill-rule="evenodd"/>
          <path id="Trazado_992327" data-name="Trazado 992327" d="M60.395,59.418a3.684,3.684,0,1,1-.593,7.321,3.684,3.684,0,0,0,0-7.273,3.711,3.711,0,0,1,.593-.048ZM85.51,33.758a3.684,3.684,0,1,1,0,7.273,3.684,3.684,0,0,0,0-7.273Zm-51.416,0a3.684,3.684,0,1,1,0,7.273,3.684,3.684,0,0,0,0-7.273ZM60.395,8a3.684,3.684,0,1,1-.593,7.32,3.684,3.684,0,0,0,0-7.273A3.7,3.7,0,0,1,60.395,8Z" transform="translate(-31.002 -8.002)" fill="#ffd064" fill-rule="evenodd"/>
          <path id="Trazado_992328" data-name="Trazado 992328" d="M18.462,21.844a6.14,6.14,0,1,1,6.14,6.14A6.14,6.14,0,0,1,18.462,21.844Zm55.611,44.12a6.14,6.14,0,1,1-6.14-6.14A6.14,6.14,0,0,1,74.072,65.964ZM24.207,71.709a6.14,6.14,0,1,1,6.14-6.14,6.14,6.14,0,0,1-6.14,6.14ZM68.327,16.1a6.14,6.14,0,1,1-6.14,6.14A6.14,6.14,0,0,1,68.327,16.1Z" transform="translate(-16.875 -14.791)" fill="#6cf5c2" fill-rule="evenodd"/>
          <path id="Trazado_992329" data-name="Trazado 992329" d="M65.271,15.733q.293-.028.593-.029a6.14,6.14,0,0,1,0,12.28q-.3,0-.593-.029a6.14,6.14,0,0,0,0-12.223Zm50.063,50.232a6.14,6.14,0,0,1-6.14,6.14q-.3,0-.593-.029a6.14,6.14,0,0,0,0-12.223q.293-.028.593-.029A6.14,6.14,0,0,1,115.334,65.964ZM65.469,71.709q-.3,0-.593-.029a6.14,6.14,0,0,0,0-12.223q.293-.028.593-.029a6.14,6.14,0,1,1,0,12.28ZM109.588,16.1a6.14,6.14,0,1,1,0,12.28q-.3,0-.593-.029a6.14,6.14,0,0,0,0-12.223q.292-.028.593-.029Z" transform="translate(-58.136 -14.791)" fill="#00e499" fill-rule="evenodd"/>
        </g>
        <g id="Grupo_1159844" data-name="Grupo 1159844" transform="translate(6.062 5.79)">
          <circle id="Elipse_11577" data-name="Elipse 11577" cx="16.495" cy="16.495" r="16.495" transform="translate(0 23.323) rotate(-45)" fill="#8ac9fe"/>
          <path id="Trazado_992330" data-name="Trazado 992330" d="M247.2,114.471a16.495,16.495,0,0,1,0,32.989c-.4,0-.794-.015-1.185-.043a16.494,16.494,0,0,0,0-32.9C246.4,114.486,246.8,114.471,247.2,114.471Z" transform="translate(-223.865 -107.642)" fill="#60b7ff" fill-rule="evenodd"/>
        </g>
        <g id="Grupo_1159845" data-name="Grupo 1159845" transform="translate(19.022 19.721)">
          <path id="Trazado_992331" data-name="Trazado 992331" d="M273.556,199.735a2.133,2.133,0,0,0-3.016,0c-.025.025-.228.229-.251.254L273.3,203c.026-.023.23-.226.254-.251A2.132,2.132,0,0,0,273.556,199.735Z" transform="translate(-258.227 -196.183)" fill="#a79ba7" fill-rule="evenodd"/>
          <path id="Trazado_992332" data-name="Trazado 992332" d="M229.262,301.911l-5.248-5.248-1.893,1.893,3.846,3.846a1.987,1.987,0,0,0,2.8,0Z" transform="translate(-215.767 -282.173)" fill="#a79ba7" fill-rule="evenodd"/>
          <path id="Trazado_992333" data-name="Trazado 992333" d="M177.349,189.485l-2.682,2.682a3.609,3.609,0,0,1-5.1-5.1l2.682-2.682c1.81-2.747,2.569-6.309,3.372-9.174a1.1,1.1,0,0,1,1.83-.479l9.455,9.455a1.1,1.1,0,0,1-.535,1.844C183.3,186.716,180.1,187.53,177.349,189.485Z" transform="translate(-168.511 -174.405)" fill="#eceff1" fill-rule="evenodd"/>
          <path id="Trazado_992334" data-name="Trazado 992334" d="M182.322,255.98l-2.681,2.682a3.607,3.607,0,0,1-5.488-.454,3.623,3.623,0,0,0,4.65-.384l2.681-2.682c2.747-1.956,5.947-2.769,9.019-3.458a1.1,1.1,0,0,0,.535-1.844l.838.838a1.1,1.1,0,0,1-.535,1.844C188.268,253.21,185.068,254.024,182.322,255.98Z" transform="translate(-173.483 -240.899)" fill="#d1d1d6" fill-rule="evenodd"/>
          <path id="Trazado_992335" data-name="Trazado 992335" d="M176.758,263.1l-4.513-4.513-2.682,2.682a3.609,3.609,0,0,0,5.1,5.1l.788-.788,1.893-1.893Z" transform="translate(-168.512 -248.609)" fill="#fe646f" fill-rule="evenodd"/>
          <path id="Trazado_992336" data-name="Trazado 992336" d="M181.731,294.827l-.247-.247-2.681,2.682a3.623,3.623,0,0,1-4.65.384l.011.015.034.047.009.013.006.007.006.007.03.038.032.04.02.025.044.052.011.013.052.06.005.006.059.064h0l.065.066.066.065.068.063.069.061.07.059.071.057.072.055.073.053.074.05.075.048.076.046.077.044.078.042.079.04.08.038.08.036.081.034.082.032.082.03.083.028.084.026.084.024.085.022.085.02.085.017.086.015.086.013.086.011.086.009q.086.008.173.012t.173,0h.087l.087,0,.087-.005.086-.007.086-.009.086-.011.086-.013q.129-.022.256-.053.169-.041.335-.1l.082-.03.082-.032.081-.034.08-.036.08-.038q.079-.039.157-.082l.077-.044.076-.046.075-.048a3.56,3.56,0,0,0,.362-.272l.069-.061.068-.063.066-.065.462-.462.326-.326,1.893-1.893Z" transform="translate(-173.484 -280.337)" fill="#fd4755" fill-rule="evenodd"/>
          <path id="Trazado_992337" data-name="Trazado 992337" d="M230.656,178.034l-3.3-3.3a1.1,1.1,0,0,0-1.83.479c-.132.47-.262.96-.4,1.461l9.7,9.7c.485-.118.97-.229,1.451-.337a1.1,1.1,0,0,0,.535-1.844l-3.138-3.138Z" transform="translate(-218.414 -174.405)" fill="#fe646f" fill-rule="evenodd"/>
          <path id="Trazado_992338" data-name="Trazado 992338" d="M299.864,252.033l.838.838h0l.019,0,.091-.022.023-.005.013,0,.01,0,.023-.005.046-.011.023-.005.023-.005L301,252.8h0l.023-.005.091-.021.023-.005.007,0,.015,0,.023-.005.023-.005.023-.005.023-.005.023-.005.016,0,.007,0,.091-.021.023-.005.023-.005h0l.021,0,.023-.005.023-.005.023-.005.023-.005.023-.005.011,0,.012,0,.023-.005.023-.005.023-.005.023-.005.023-.005.019,0h0l.023-.005.023-.005.091-.021h.005l.017,0,.023-.005.09-.021.014,0,.009,0,.023-.005.023,0,.023-.005.023-.005.022-.005.023,0,.019,0,.018,0,.018,0,.018-.005h0l.018-.005h0l.018-.006.018-.006.018-.006.017-.007h0l.017-.007.017-.007.017-.007.017-.008.016-.008h0l.016-.008.016-.008.016-.009.016-.009.016-.009.016-.009.015-.01.015-.01.015-.01.015-.01.015-.011.014-.011.014-.011.014-.011.014-.011.013-.012.013-.012.013-.012.013-.012.013-.013.012-.013.012-.013.012-.013.012-.013.012-.014h0l.011-.014.011-.014.011-.014.011-.014.01-.015.01-.015.01-.015.01-.015.01-.016.009-.016.009-.016.009-.016.009-.016.008-.016.008-.017.008-.017.008-.017.007-.017.007-.017.007-.018.007-.018.006-.018.006-.018.006-.018.006-.018.005-.018.005-.018,0-.018,0-.018,0-.018,0-.018,0-.018,0-.018,0-.018,0-.018h0l0-.018,0-.018v-.181l0-.018,0-.018,0-.018,0-.018,0-.018,0-.018,0-.018,0-.017,0-.017,0-.017,0-.017,0-.017-.005-.017-.005-.017-.006-.017-.006-.017-.006-.017-.007-.017-.007-.017-.007-.016-.008-.016-.008-.016-.008-.016-.008-.016-.009-.016-.009-.016-.009-.016-.01-.016-.01-.015-.01-.015-.01-.015-.011-.015-.011-.015-.011-.015-.012-.015-.012-.014-.012-.014-.012-.014-.013-.014-.013-.014-.013-.014-.013-.014-.838-.838a1.1,1.1,0,0,1-.535,1.844Q300.592,251.857,299.864,252.033Z" transform="translate(-284.297 -240.911)" fill="#fd4755" fill-rule="evenodd"/>
        </g>
      </g>
      <path id="Trazado_992339" data-name="Trazado 992339" d="M38.934,24.893h1.784a.948.948,0,1,1,0,1.9H38.934a.948.948,0,1,1,0-1.9Zm-6.122-4.461V18.647a.948.948,0,0,1,1.9,0v1.785a.948.948,0,0,1-1.9,0Zm3.779,2.509a.946.946,0,0,1,0-1.34l1.261-1.261a.948.948,0,1,1,1.34,1.341l-1.261,1.261a.946.946,0,0,1-1.34,0ZM28.816,37.095l3.294,3.294a1.037,1.037,0,0,1-1.262-.158l-2.585-2.584Zm-7.115.671A2.666,2.666,0,0,1,21.7,34l2.011-2.011,3.763,3.762-2.011,2.012A2.665,2.665,0,0,1,21.7,37.766Zm5.471-13a24.933,24.933,0,0,1-2.26,5.747l4.024,4.024a21.128,21.128,0,0,1,5.612-2.4Zm.93-3.134a.126.126,0,0,0-.1.1c-.084.3-.167.607-.253.922l8.935,8.935c.316-.075.633-.147.947-.218a.148.148,0,0,0,.072-.249l-9.455-9.454a.127.127,0,0,0-.094-.046.211.211,0,0,0-.048.007ZM34.637,24.9a1.188,1.188,0,0,1,.346.829L33.81,24.551a1.178,1.178,0,0,1,.827.344ZM31.579,42.43a2.925,2.925,0,0,0,2.073-.858l.491-.491a.948.948,0,0,0,0-1.34L30.313,35.91a25.845,25.845,0,0,1,7.729-2.69,2.044,2.044,0,0,0,1-3.44L36.49,27.232a3.08,3.08,0,0,0-4.19-4.19l-2.716-2.716a2.043,2.043,0,0,0-3.413.893c-.125.445-.245.9-.374,1.373a26.493,26.493,0,0,1-2.825,7.457L20.36,32.661a4.557,4.557,0,0,0,6.445,6.445l.117-.117,2.585,2.584a2.918,2.918,0,0,0,2.072.858ZM52.407,56.922A5.192,5.192,0,1,1,57.6,51.73,5.2,5.2,0,0,1,52.407,56.922Zm-19.323-.87a2.736,2.736,0,1,1-2.736-2.736A2.74,2.74,0,0,1,33.084,56.052ZM14.8,30.064A15.546,15.546,0,1,0,30.348,14.518,15.564,15.564,0,0,0,14.8,30.064ZM8.683,56.922a5.192,5.192,0,1,1,5.192-5.192A5.2,5.2,0,0,1,8.683,56.922Zm0-43.331A5.192,5.192,0,1,1,13.875,8.4,5.2,5.2,0,0,1,8.683,13.591Zm18.93-8.956a2.736,2.736,0,1,1,2.735,2.736A2.739,2.739,0,0,1,27.612,4.635ZM52.407,3.207A5.192,5.192,0,1,1,47.216,8.4a5.2,5.2,0,0,1,5.191-5.192ZM4.64,32.8a2.736,2.736,0,1,1,2.735-2.736A2.74,2.74,0,0,1,4.64,32.8Zm51.416-5.472a2.736,2.736,0,1,1-2.736,2.735A2.739,2.739,0,0,1,56.056,27.329ZM52.407,44.642a7.054,7.054,0,0,0-4.679,1.77l-4.509-4.59a17.378,17.378,0,0,0,4.528-10.53h3.842a4.632,4.632,0,1,0-.117-1.9h-3.7a17.366,17.366,0,0,0-4.346-10.853l4.63-4.549a7.076,7.076,0,1,0-1.326-1.347l-4.629,4.546A17.377,17.377,0,0,0,31.3,12.648V9.17a4.631,4.631,0,1,0-1.9,0v3.478a17.369,17.369,0,0,0-10.575,4.334l-4.38-4.461a7.1,7.1,0,1,0-1.3,1.378l4.328,4.408A17.369,17.369,0,0,0,12.919,29.4h-3.7a4.634,4.634,0,1,0-.117,1.9h3.843a17.358,17.358,0,0,0,4.317,10.3L12.8,45.969a7.1,7.1,0,1,0,1.378,1.3l4.407-4.328A17.387,17.387,0,0,0,29.4,47.481v4.037a4.633,4.633,0,1,0,1.9,0V47.481a17.375,17.375,0,0,0,10.575-4.334l4.613,4.7a7.085,7.085,0,1,0,5.924-3.2Z" fill-rule="evenodd"/>
    </g>
  </g>
</svg>
