<svg xmlns="http://www.w3.org/2000/svg" xmlns:xlink="http://www.w3.org/1999/xlink" width="108" height="108" viewBox="0 0 108 108">
  <defs>
    <filter id="Trazado_982547" x="0" y="0" width="108" height="108" filterUnits="userSpaceOnUse">
      <feOffset dy="3" input="SourceAlpha"/>
      <feGaussianBlur stdDeviation="3" result="blur"/>
      <feFlood flood-opacity="0.161"/>
      <feComposite operator="in" in2="blur"/>
      <feComposite in="SourceGraphic"/>
    </filter>
  </defs>
  <g id="Grupo_1160878" data-name="Grupo 1160878" transform="translate(-173 -1945)">
    <g id="Grupo_1159801" data-name="Grupo 1159801" transform="translate(12 493)">
      <g id="Grupo_1153117" data-name="Grupo 1153117" transform="translate(-93 939)">
        <g id="Grupo_1149598" data-name="Grupo 1149598" transform="translate(80 315)">
          <g id="Grupo_1148770" data-name="Grupo 1148770" transform="translate(-27 -2583)">
            <g id="Grupo_1146954" data-name="Grupo 1146954" transform="translate(-415 -1202)">
              <g transform="matrix(1, 0, 0, 1, 616, 3983)" filter="url(#Trazado_982547)">
                <g id="Trazado_982547-2" data-name="Trazado 982547" transform="translate(9 6)" fill="#eff5f8">
                  <path d="M 45 88.5 C 39.12687683105469 88.5 33.43022537231445 87.35007476806641 28.06830024719238 85.08217620849609 C 22.88852500915527 82.89131164550781 18.23629951477051 79.75458526611328 14.2408504486084 75.75914764404297 C 10.24541282653809 71.76370239257812 7.108687400817871 67.11147308349609 4.917825222015381 61.93170166015625 C 2.649924993515015 56.56977462768555 1.5 50.87312316894531 1.5 45 C 1.5 39.12687683105469 2.649924993515015 33.43022537231445 4.917825222015381 28.06830024719238 C 7.108687400817871 22.88852500915527 10.24541282653809 18.23629951477051 14.2408504486084 14.2408504486084 C 18.23629951477051 10.24541282653809 22.88852500915527 7.108687400817871 28.06830024719238 4.917825222015381 C 33.43022537231445 2.649924993515015 39.12687683105469 1.5 45 1.5 C 50.87312316894531 1.5 56.56977462768555 2.649924993515015 61.93170166015625 4.917825222015381 C 67.11147308349609 7.108687400817871 71.76370239257812 10.24541282653809 75.75914764404297 14.2408504486084 C 79.75458526611328 18.23629951477051 82.89131164550781 22.88852500915527 85.08217620849609 28.06830024719238 C 87.35007476806641 33.43022537231445 88.5 39.12687683105469 88.5 45 C 88.5 50.87312316894531 87.35007476806641 56.56977462768555 85.08217620849609 61.93170166015625 C 82.89131164550781 67.11147308349609 79.75458526611328 71.76370239257812 75.75914764404297 75.75914764404297 C 71.76370239257812 79.75458526611328 67.11147308349609 82.89131164550781 61.93170166015625 85.08217620849609 C 56.56977462768555 87.35007476806641 50.87312316894531 88.5 45 88.5 Z" stroke="none"/>
                  <path d="M 45 3 C 39.32871246337891 3 33.82865524291992 4.110054016113281 28.65262985229492 6.299339294433594 C 23.65165710449219 8.414573669433594 19.15968322753906 11.44334411621094 15.301513671875 15.301513671875 C 11.44334411621094 19.15968322753906 8.414573669433594 23.65165710449219 6.299339294433594 28.65262985229492 C 4.110054016113281 33.82865524291992 3 39.32871246337891 3 45 C 3 50.67128753662109 4.110054016113281 56.17134475708008 6.299339294433594 61.34737396240234 C 8.414573669433594 66.34834289550781 11.44334411621094 70.84031677246094 15.301513671875 74.698486328125 C 19.15968322753906 78.55665588378906 23.65165710449219 81.58542633056641 28.65262985229492 83.70066070556641 C 33.82865524291992 85.88994598388672 39.32871246337891 87 45 87 C 50.67128753662109 87 56.17134475708008 85.88994598388672 61.34737396240234 83.70066070556641 C 66.34834289550781 81.58542633056641 70.84031677246094 78.55665588378906 74.698486328125 74.698486328125 C 78.55665588378906 70.84031677246094 81.58542633056641 66.34834289550781 83.70066070556641 61.34737396240234 C 85.88994598388672 56.17134475708008 87 50.67128753662109 87 45 C 87 39.32871246337891 85.88994598388672 33.82865524291992 83.70066070556641 28.65262985229492 C 81.58542633056641 23.65165710449219 78.55665588378906 19.15968322753906 74.698486328125 15.301513671875 C 70.84031677246094 11.44334411621094 66.34834289550781 8.414573669433594 61.34737396240234 6.299339294433594 C 56.17134475708008 4.110054016113281 50.67128753662109 3 45 3 M 45 0 C 69.85281372070312 0 90 20.14718627929688 90 45 C 90 69.85281372070312 69.85281372070312 90 45 90 C 20.14718627929688 90 0 69.85281372070312 0 45 C 0 20.14718627929688 20.14718627929688 0 45 0 Z" stroke="none" fill="#3b596a"/>
                </g>
              </g>
            </g>
          </g>
        </g>
      </g>
    </g>
    <g id="compra-en-linea_1_" data-name="compra-en-linea (1)" transform="translate(200 1968.961)">
      <path id="Trazado_994728" data-name="Trazado 994728" d="M74.537,119.926H35.545A3.545,3.545,0,0,0,32,123.471v33.675H78.082V123.471A3.545,3.545,0,0,0,74.537,119.926Zm0,0" transform="translate(-28.456 -106.607)" fill="#4398d1"/>
      <path id="Trazado_994729" data-name="Trazado 994729" d="M101.22,151.926H64.886a.886.886,0,0,0-.886.886v31.016h38.992V153.7A1.772,1.772,0,0,0,101.22,151.926Zm0,0" transform="translate(-56.911 -135.062)" fill="#87ced9"/>
      <path id="Trazado_994730" data-name="Trazado 994730" d="M209.7,207.926l-25.7,25.7h25.7Zm0,0" transform="translate(-163.618 -184.859)" fill="#71c4d1"/>
      <path id="Trazado_994731" data-name="Trazado 994731" d="M245.293,7.926l2.752,3.021,3.894-1.24.873,3.993,3.993.873-1.24,3.894,3.021,2.752-3.021,2.752,1.24,3.894-3.993.873-.873,3.993-3.894-1.24-2.752,3.021L242.54,31.49l-3.894,1.24-.873-3.993-3.993-.873,1.24-3.894L232,21.219l3.021-2.752-1.24-3.894,3.993-.873.873-3.993,3.894,1.24Zm0,0" transform="translate(-206.301 -7.013)" fill="#fdb62f"/>
      <g id="Grupo_1160877" data-name="Grupo 1160877" transform="translate(31.902 8.888)">
        <path id="Trazado_994732" data-name="Trazado 994732" d="M306.344,91.132l8.861-8.862,1.254,1.253L307.6,92.385Zm0,0" transform="translate(-304.312 -82.01)" fill="#fd6d2f"/>
        <path id="Trazado_994733" data-name="Trazado 994733" d="M290.659,85.243a2.659,2.659,0,1,1,2.659-2.659A2.659,2.659,0,0,1,290.659,85.243Zm0-3.545a.886.886,0,1,0,.886.886A.886.886,0,0,0,290.659,81.7Zm0,0" transform="translate(-288 -79.926)" fill="#fd6d2f"/>
        <path id="Trazado_994734" data-name="Trazado 994734" d="M370.659,133.243a2.659,2.659,0,1,1,2.659-2.659A2.659,2.659,0,0,1,370.659,133.243Zm0-3.545a.886.886,0,1,0,.886.886A.886.886,0,0,0,370.659,129.7Zm0,0" transform="translate(-359.138 -122.609)" fill="#fd6d2f"/>
      </g>
      <path id="Trazado_994735" data-name="Trazado 994735" d="M123.047,342.316l-3.183,1.291,2.077,4.2h3.486Zm0,0" transform="translate(-106.587 -304.362)" fill="#e0e3e6"/>
      <path id="Trazado_994736" data-name="Trazado 994736" d="M140.511,235.371l-11.011-.178-2.379-4.71,8.725-8.635Zm0,0" transform="translate(-113.04 -197.238)" fill="#e0e3e6"/>
      <path id="Trazado_994737" data-name="Trazado 994737" d="M96.137,304.084a2.57,2.57,0,0,0,3.582,1.469l2.113-1.046-2.379-4.71-2.2,1.307A2.526,2.526,0,0,0,96.137,304.084Zm0,0" transform="translate(-85.372 -266.553)" fill="#e3584b"/>
      <path id="Trazado_994738" data-name="Trazado 994738" d="M249.281,265.788l2.931-1.019.581,1.673-2.93,1.019Zm0,0" transform="translate(-221.668 -235.406)" fill="#5eb3d1"/>
      <path id="Trazado_994739" data-name="Trazado 994739" d="M228.492,204.428l1.954-2.037,1.279,1.227-1.955,2.037Zm0,0" transform="translate(-203.182 -179.936)" fill="#5eb3d1"/>
      <path id="Trazado_994740" data-name="Trazado 994740" d="M272,327.926h2.659V329.7H272Zm0,0" transform="translate(-241.87 -291.566)" fill="#5eb3d1"/>
      <path id="Trazado_994741" data-name="Trazado 994741" d="M320,279.926h16.837V290.56H320Zm0,0" transform="translate(-284.553 -248.883)" fill="#e3584b"/>
      <path id="Trazado_994742" data-name="Trazado 994742" d="M344,303.926h3.545V305.7H344Zm0,0" transform="translate(-305.895 -270.224)" fill="#c9433c"/>
      <path id="Trazado_994743" data-name="Trazado 994743" d="M392,303.926h6.2V305.7H392Zm0,0" transform="translate(-348.577 -270.224)" fill="#c9433c"/>
      <path id="Trazado_994744" data-name="Trazado 994744" d="M344,335.926h11.52V337.7H344Zm0,0" transform="translate(-305.895 -298.68)" fill="#c9433c"/>
      <path id="Trazado_994745" data-name="Trazado 994745" d="M8,183.926H21.293v7.089H8Zm0,0" transform="translate(-7.114 -163.517)" fill="#fd6d2f"/>
      <path id="Trazado_994746" data-name="Trazado 994746" d="M32,207.926h1.772V209.7H32Zm0,0" transform="translate(-28.456 -184.859)" fill="#e3584b"/>
      <path id="Trazado_994747" data-name="Trazado 994747" d="M64,207.926h4.431V209.7H64Zm0,0" transform="translate(-56.911 -184.859)" fill="#e3584b"/>
      <path id="Trazado_994748" data-name="Trazado 994748" d="M56.74,429.243H10.659A2.659,2.659,0,0,1,8,426.585v-2.659H28.278a1.6,1.6,0,0,1,1.434.886,1.6,1.6,0,0,0,1.434.886h5.108a1.6,1.6,0,0,0,1.434-.886,1.6,1.6,0,0,1,1.434-.886H59.4v2.659a2.659,2.659,0,0,1-2.659,2.659Zm0,0" transform="translate(-7.114 -376.932)" fill="#d6d9db"/>
      <path id="Trazado_994749" data-name="Trazado 994749" d="M71.089,199.926v5.317H64v1.772h8.862v-7.089Zm0,0" transform="translate(-56.911 -177.745)" fill="#71c4d1"/>
      <path id="Trazado_994750" data-name="Trazado 994750" d="M32,247.926h3.545V249.7H32Zm0,0" transform="translate(-28.456 -220.428)" fill="#3e8cc7"/>
      <path id="Trazado_994751" data-name="Trazado 994751" d="M416,375.926h3.545V377.7H416Zm0,0" transform="translate(-369.919 -334.249)" fill="#3e8cc7"/>
      <path id="Trazado_994752" data-name="Trazado 994752" d="M52.284,287.877H50.512V286.1H48.74v1.772H46.967V286.1H45.195v1.772H32.007a2.476,2.476,0,0,0-2.231,1.376.71.71,0,0,1-.641.4h-5.1a.709.709,0,0,1-.641-.4,2.476,2.476,0,0,0-2.227-1.376H7.975V271.926H6.2v15.951H4.43V271.926H2.658v15.951H.886a.886.886,0,0,0-.886.886v2.659a3.545,3.545,0,0,0,3.545,3.545H49.626a3.545,3.545,0,0,0,3.545-3.545v-2.659a.886.886,0,0,0-.886-.886Zm-.886,3.545a1.772,1.772,0,0,1-1.772,1.772H3.544a1.772,1.772,0,0,1-1.772-1.772V289.65H21.163a.709.709,0,0,1,.641.4,2.476,2.476,0,0,0,2.227,1.376h5.108a2.475,2.475,0,0,0,2.231-1.376.71.71,0,0,1,.637-.4H51.4Zm0,0" transform="translate(0 -241.769)"/>
      <path id="Trazado_994753" data-name="Trazado 994753" d="M44.382,113.7v-1.772H28.431A4.436,4.436,0,0,0,24,116.357v.886h1.772v-.886a2.659,2.659,0,0,1,2.659-2.659Zm0,0" transform="translate(-21.342 -99.493)"/>
      <path id="Trazado_994754" data-name="Trazado 994754" d="M56,145.7H74.61v-1.772H57.772A1.772,1.772,0,0,0,56,145.7Zm0,0" transform="translate(-49.797 -127.948)"/>
      <path id="Trazado_994755" data-name="Trazado 994755" d="M249.456,11.181l1.064-3.352a.886.886,0,0,0-.654-1.135l-3.438-.752-.748-3.434a.886.886,0,0,0-1.132-.658L241.2,2.913l-2.373-2.6a.913.913,0,0,0-1.309,0l-2.37,2.6-3.356-1.068a.886.886,0,0,0-1.135.655L229.9,5.942l-3.431.752a.886.886,0,0,0-.655,1.135l1.064,3.352-2.6,2.37a.885.885,0,0,0,0,1.309l2.6,2.37-1.064,3.352a.886.886,0,0,0,.655,1.135l3.438.752.751,3.437a.887.887,0,0,0,1.135.655l3.352-1.068,2.37,2.6a.886.886,0,0,0,1.31,0l2.37-2.6,3.353,1.068a.886.886,0,0,0,1.135-.655l.752-3.437,3.437-.752a.886.886,0,0,0,.655-1.135l-1.063-3.352,2.6-2.37a.886.886,0,0,0,0-1.309ZM247.843,16.3a.886.886,0,0,0-.247.924l.941,2.968-3.042.666a.887.887,0,0,0-.675.675l-.662,3.039-2.967-.945a.891.891,0,0,0-.924.248l-2.1,2.306-2.1-2.3a.88.88,0,0,0-.92-.247l-2.971.943-.666-3.042a.887.887,0,0,0-.675-.675l-3.039-.662.945-2.968a.886.886,0,0,0-.247-.924l-2.306-2.1,2.3-2.1a.885.885,0,0,0,.247-.924L227.8,8.217l3.042-.666a.887.887,0,0,0,.675-.675l.662-3.039,2.967.945a.886.886,0,0,0,.924-.248l2.1-2.306,2.1,2.3a.885.885,0,0,0,.924.247l2.967-.943.666,3.042a.887.887,0,0,0,.675.675l3.042.666-.945,2.968a.886.886,0,0,0,.247.924l2.3,2.093Zm0,0" transform="translate(-199.177 0)"/>
      <path id="Trazado_994756" data-name="Trazado 994756" d="M306.344,91.132l8.861-8.862,1.254,1.253L307.6,92.385Zm0,0" transform="translate(-272.41 -73.122)"/>
      <path id="Trazado_994757" data-name="Trazado 994757" d="M293.317,82.585a2.659,2.659,0,1,0-2.659,2.659A2.659,2.659,0,0,0,293.317,82.585Zm-3.545,0a.886.886,0,1,1,.886.886A.886.886,0,0,1,289.772,82.585Zm0,0" transform="translate(-256.098 -71.038)"/>
      <path id="Trazado_994758" data-name="Trazado 994758" d="M370.659,127.926a2.659,2.659,0,1,0,2.659,2.659A2.659,2.659,0,0,0,370.659,127.926Zm0,3.545a.886.886,0,1,1,.886-.886A.886.886,0,0,1,370.659,131.471Zm0,0" transform="translate(-327.236 -113.721)"/>
      <path id="Trazado_994759" data-name="Trazado 994759" d="M101.233,213.869a.879.879,0,0,0-.825.232l-8.649,8.56-2.1,1.251a3.406,3.406,0,0,0,1.283,6.316l1.846,3.735a.886.886,0,0,0,.8.494h3.486a.886.886,0,0,0,.813-1.241l-1.835-4.235,9.634.16h.015a.886.886,0,0,0,.837-1.175l-4.664-13.523a.886.886,0,0,0-.637-.573Zm-11.4,13.5a1.633,1.633,0,0,1,.727-1.936l1.384-.821,1.55,3.065-1.312.65a1.7,1.7,0,0,1-1.407.046,1.642,1.642,0,0,1-.942-1Zm4.3,5.317-1.34-2.707c.056-.025.116-.034.172-.062l1.278-.633,1.473,3.4Zm1.106-5.486-1.847-3.656,7.266-7.191,3.792,11Zm0,0" transform="translate(-78.225 -190.122)"/>
      <path id="Trazado_994760" data-name="Trazado 994760" d="M249.281,265.788l2.931-1.019.581,1.673-2.93,1.019Zm0,0" transform="translate(-221.668 -235.406)"/>
      <path id="Trazado_994761" data-name="Trazado 994761" d="M228.492,204.428l1.954-2.037,1.279,1.227-1.955,2.037Zm0,0" transform="translate(-203.182 -179.936)"/>
      <path id="Trazado_994762" data-name="Trazado 994762" d="M272,327.926h2.659V329.7H272Zm0,0" transform="translate(-241.87 -291.566)"/>
      <path id="Trazado_994763" data-name="Trazado 994763" d="M329.724,222.129h-1.772v-6.2h-1.772v6.2h-1.772v-1.772h-1.772v1.772h-9.748a.886.886,0,0,0-.886.886V233.65a.886.886,0,0,0,.886.886h16.838a.886.886,0,0,0,.886-.886V223.015A.886.886,0,0,0,329.724,222.129Zm-.886,10.634H313.772V223.9h15.065Zm0,0" transform="translate(-277.439 -191.973)"/>
      <path id="Trazado_994764" data-name="Trazado 994764" d="M344,303.926h3.545V305.7H344Zm0,0" transform="translate(-305.895 -270.224)"/>
      <path id="Trazado_994765" data-name="Trazado 994765" d="M392,303.926h6.2V305.7H392Zm0,0" transform="translate(-348.577 -270.224)"/>
      <path id="Trazado_994766" data-name="Trazado 994766" d="M344,335.926h11.52V337.7H344Zm0,0" transform="translate(-305.895 -298.68)"/>
      <path id="Trazado_994767" data-name="Trazado 994767" d="M.886,184.788H14.179a.886.886,0,0,0,.886-.886v-7.089a.886.886,0,0,0-.886-.886H.886a.886.886,0,0,0-.886.886V183.9A.886.886,0,0,0,.886,184.788Zm.886-7.089h11.52v5.317H1.772Zm0,0" transform="translate(-0.001 -156.403)"/>
      <path id="Trazado_994768" data-name="Trazado 994768" d="M32,207.926h1.772V209.7H32Zm0,0" transform="translate(-28.456 -184.859)"/>
      <path id="Trazado_994769" data-name="Trazado 994769" d="M64,207.926h4.431V209.7H64Zm0,0" transform="translate(-56.911 -184.859)"/>
    </g>
  </g>
</svg>
