<svg xmlns="http://www.w3.org/2000/svg" xmlns:xlink="http://www.w3.org/1999/xlink" width="113" height="113" viewBox="0 0 113 113">
  <defs>
    <filter id="Trazado_982547" x="0" y="0" width="113" height="113" filterUnits="userSpaceOnUse">
      <feOffset dy="3" input="SourceAlpha"/>
      <feGaussianBlur stdDeviation="3" result="blur"/>
      <feFlood flood-opacity="0.161"/>
      <feComposite operator="in" in2="blur"/>
      <feComposite in="SourceGraphic"/>
    </filter>
  </defs>
  <g id="Grupo_1160627" data-name="Grupo 1160627" transform="translate(-742 -5712)">
    <g id="Grupo_1159768" data-name="Grupo 1159768" transform="translate(0 1505)">
      <g id="Grupo_1158169" data-name="Grupo 1158169" transform="translate(-1 -1314)">
        <g id="Grupo_1152577" data-name="Grupo 1152577" transform="translate(-0.5 1205.621)">
          <g id="Grupo_1148634" data-name="Grupo 1148634" transform="translate(488.454 600.047)">
            <g id="Grupo_1148525" data-name="Grupo 1148525" transform="translate(264.046 3721.333)">
              <g transform="matrix(1, 0, 0, 1, -9, -6)" filter="url(#Trazado_982547)">
                <g id="Trazado_982547-2" data-name="Trazado 982547" transform="translate(9 6)" fill="#fef2ec">
                  <path d="M 47.5 93.5 C 41.28937149047852 93.5 35.26533508300781 92.28397369384766 29.59518623352051 89.88570404052734 C 24.11771965026855 87.56893157958984 19.19813346862793 84.25196075439453 14.97309303283691 80.02691650390625 C 10.74804019927979 75.80186462402344 7.431066513061523 70.88229370117188 5.114293098449707 65.40481567382812 C 2.716026782989502 59.73468017578125 1.5 53.71062850952148 1.5 47.5 C 1.5 41.28937149047852 2.716026782989502 35.26533508300781 5.114293098449707 29.59518623352051 C 7.431066513061523 24.11771965026855 10.74804019927979 19.19813346862793 14.97309303283691 14.97309303283691 C 19.19813346862793 10.74804019927979 24.11771965026855 7.431066513061523 29.59518623352051 5.114293098449707 C 35.26533508300781 2.716026782989502 41.28937149047852 1.5 47.5 1.5 C 53.71062850952148 1.5 59.73468017578125 2.716026782989502 65.40481567382812 5.114293098449707 C 70.88229370117188 7.431066513061523 75.80186462402344 10.74804019927979 80.02691650390625 14.97309303283691 C 84.25196075439453 19.19813346862793 87.56893157958984 24.11771965026855 89.88570404052734 29.59518623352051 C 92.28397369384766 35.26533508300781 93.5 41.28937149047852 93.5 47.5 C 93.5 53.71062850952148 92.28397369384766 59.73468017578125 89.88570404052734 65.40481567382812 C 87.56893157958984 70.88229370117188 84.25196075439453 75.80186462402344 80.02691650390625 80.02691650390625 C 75.80186462402344 84.25196075439453 70.88229370117188 87.56893157958984 65.40481567382812 89.88570404052734 C 59.73468017578125 92.28397369384766 53.71062850952148 93.5 47.5 93.5 Z" stroke="none"/>
                  <path d="M 47.5 3 C 41.49121475219727 3 35.66376876831055 4.176155090332031 30.17950439453125 6.495796203613281 C 24.88084411621094 8.736953735351562 20.12152099609375 11.94598388671875 16.03375244140625 16.03375244140625 C 11.94598388671875 20.12152099609375 8.736953735351562 24.88084411621094 6.495796203613281 30.17950439453125 C 4.176155090332031 35.66376876831055 3 41.49121475219727 3 47.5 C 3 53.50878524780273 4.176155090332031 59.33623123168945 6.495796203613281 64.82049560546875 C 8.736953735351562 70.11915588378906 11.94598388671875 74.87847900390625 16.03375244140625 78.96624755859375 C 20.12152099609375 83.05401611328125 24.88084411621094 86.26304626464844 30.17950439453125 88.50419616699219 C 35.66376876831055 90.82384490966797 41.49121475219727 92 47.5 92 C 53.50878524780273 92 59.33623123168945 90.82384490966797 64.82049560546875 88.50419616699219 C 70.11915588378906 86.26304626464844 74.87847900390625 83.05401611328125 78.96624755859375 78.96624755859375 C 83.05401611328125 74.87847900390625 86.26304626464844 70.11915588378906 88.50419616699219 64.82049560546875 C 90.82384490966797 59.33623123168945 92 53.50878524780273 92 47.5 C 92 41.49121475219727 90.82384490966797 35.66376876831055 88.50419616699219 30.17950439453125 C 86.26304626464844 24.88084411621094 83.05401611328125 20.12152099609375 78.96624755859375 16.03375244140625 C 74.87847900390625 11.94598388671875 70.11915588378906 8.736953735351562 64.82049560546875 6.495796203613281 C 59.33623123168945 4.176155090332031 53.50878524780273 3 47.5 3 M 47.5 0 C 73.7335205078125 0 95 21.2664794921875 95 47.5 C 95 73.7335205078125 73.7335205078125 95 47.5 95 C 21.2664794921875 95 0 73.7335205078125 0 47.5 C 0 21.2664794921875 21.2664794921875 0 47.5 0 Z" stroke="none" fill="#fe8953"/>
                </g>
              </g>
            </g>
          </g>
        </g>
      </g>
    </g>
    <g id="salvar-la-naturaleza_1_" data-name="salvar-la-naturaleza (1)" transform="translate(761 5687.97)">
      <g id="Grupo_1160625" data-name="Grupo 1160625" transform="translate(1.106 48.136)">
        <g id="Grupo_1160624" data-name="Grupo 1160624" transform="translate(0 0)">
          <g id="Grupo_1160607" data-name="Grupo 1160607">
            <path id="Trazado_994586" data-name="Trazado 994586" d="M51.419,108.093a28.916,28.916,0,1,1,6.248-5.136" transform="translate(-7.5 -54.53)" fill="#fff"/>
          </g>
          <g id="Grupo_1160608" data-name="Grupo 1160608" transform="translate(22.236 15.338)">
            <path id="Trazado_994587" data-name="Trazado 994587" d="M158.354,171.981c0,8.444,6.633,13.4,6.633,13.4a16.849,16.849,0,0,0,0-26.8S158.354,163.537,158.354,171.981Z" transform="translate(-158.354 -158.583)" fill="#8edf78"/>
          </g>
          <g id="Grupo_1160609" data-name="Grupo 1160609" transform="translate(22.236 15.338)">
            <path id="Trazado_994588" data-name="Trazado 994588" d="M161.449,172.866a17.632,17.632,0,0,1,5.538-12.436,14.518,14.518,0,0,0-2-1.847s-6.633,4.954-6.633,13.4,6.633,13.4,6.633,13.4a12.013,12.013,0,0,0,1.138-.97A17.323,17.323,0,0,1,161.449,172.866Z" transform="translate(-158.354 -158.583)" fill="#39c17b"/>
          </g>
          <g id="Grupo_1160610" data-name="Grupo 1160610" transform="translate(10.691 23.269)">
            <path id="Trazado_994589" data-name="Trazado 994589" d="M84.907,226.679c5.971,5.971,14.165,4.784,14.165,4.784a16.849,16.849,0,0,0-18.948-18.948S78.936,220.708,84.907,226.679Z" transform="translate(-80.027 -212.39)" fill="#e2fc85"/>
          </g>
          <g id="Grupo_1160611" data-name="Grupo 1160611" transform="translate(10.691 23.269)">
            <path id="Trazado_994590" data-name="Trazado 994590" d="M87.147,224.441a17.468,17.468,0,0,1-4.876-12.048,13.539,13.539,0,0,0-2.148.124s-1.187,8.193,4.784,14.165,14.165,4.784,14.165,4.784a13.558,13.558,0,0,0,.124-2.148A17.47,17.47,0,0,1,87.147,224.441Z" transform="translate(-80.027 -212.392)" fill="#8edf78"/>
          </g>
          <g id="Grupo_1160612" data-name="Grupo 1160612" transform="translate(27.908 23.269)">
            <path id="Trazado_994591" data-name="Trazado 994591" d="M201.709,217.27c-5.971,5.971-4.784,14.165-4.784,14.165a16.849,16.849,0,0,0,18.948-18.948S207.68,211.3,201.709,217.27Z" transform="translate(-196.829 -212.39)" fill="#39c17b"/>
          </g>
          <g id="Grupo_1160613" data-name="Grupo 1160613" transform="translate(27.908 23.269)">
            <path id="Trazado_994592" data-name="Trazado 994592" d="M215.875,212.487a14.445,14.445,0,0,0-2.146-.092,16.752,16.752,0,0,1-16.891,16.782,14.67,14.67,0,0,0,.089,2.258,16.849,16.849,0,0,0,18.948-18.948Z" transform="translate(-196.83 -212.391)" fill="#31a469"/>
          </g>
          <g id="Grupo_1160614" data-name="Grupo 1160614" transform="translate(0 7.327)">
            <path id="Trazado_994593" data-name="Trazado 994593" d="M53.757,148.133a28.889,28.889,0,0,1-36.592-43.9,28.89,28.89,0,0,0,34.254,46.236l6.248-5.136q.634-.69,1.222-1.421Z" transform="translate(-7.5 -104.235)" fill="#cfdbfa"/>
          </g>
          <g id="Grupo_1160615" data-name="Grupo 1160615" transform="translate(44.358 36.432)">
            <path id="Trazado_994594" data-name="Trazado 994594" d="M336.371,302.358a2.279,2.279,0,0,0-3.223,0L318.03,317.475l-5.707-5.707a2.279,2.279,0,0,0-3.223,3.223l8.93,8.93,18.341-18.341A2.279,2.279,0,0,0,336.371,302.358Z" transform="translate(-308.432 -301.69)" fill="#8edf78"/>
          </g>
          <g id="Grupo_1160618" data-name="Grupo 1160618" transform="translate(44.358 36.887)">
            <g id="Grupo_1160616" data-name="Grupo 1160616" transform="translate(12.045)">
              <path id="Trazado_994595" data-name="Trazado 994595" d="M390.165,317.678l12.9-12.9a2.3,2.3,0,0,0-.249.213l-12.67,12.67Z" transform="translate(-390.147 -304.777)" fill="#39c17b"/>
            </g>
            <g id="Grupo_1160617" data-name="Grupo 1160617" transform="translate(0 8.957)">
              <path id="Trazado_994596" data-name="Trazado 994596" d="M311.566,367a2.267,2.267,0,0,1-.66-1.452,2.278,2.278,0,0,0-1.806,3.881l8.93,8.93,2.447-2.447Z" transform="translate(-308.432 -365.54)" fill="#39c17b"/>
            </g>
          </g>
          <g id="Grupo_1160619" data-name="Grupo 1160619" transform="translate(39.143 28.056)">
            <path id="Trazado_994597" data-name="Trazado 994597" d="M0,0H2.211V2.211H0Z" transform="translate(0 1.563) rotate(-45)" fill="#fff"/>
          </g>
          <g id="Grupo_1160620" data-name="Grupo 1160620" transform="translate(35.982 31.217)">
            <path id="Trazado_994598" data-name="Trazado 994598" d="M0,0H2.211V2.211H0Z" transform="translate(0 1.563) rotate(-45)" fill="#fff"/>
          </g>
          <g id="Grupo_1160621" data-name="Grupo 1160621" transform="translate(15.492 28.056)">
            <path id="Trazado_994599" data-name="Trazado 994599" d="M0,0H2.211V2.211H0Z" transform="translate(0 1.563) rotate(-45)" fill="#fff"/>
          </g>
          <g id="Grupo_1160622" data-name="Grupo 1160622" transform="translate(18.653 31.217)">
            <path id="Trazado_994600" data-name="Trazado 994600" d="M0,0H2.211V2.211H0Z" transform="translate(0 1.563) rotate(-45)" fill="#fff"/>
          </g>
          <g id="Grupo_1160623" data-name="Grupo 1160623" transform="translate(27.782 23.079)">
            <path id="Trazado_994601" data-name="Trazado 994601" d="M195.98,211.1h2.211v2.211H195.98Z" transform="translate(-195.98 -211.103)" fill="#fff"/>
          </g>
        </g>
      </g>
      <g id="Grupo_1160626" data-name="Grupo 1160626" transform="translate(0 47.03)">
        <path id="Trazado_994602" data-name="Trazado 994602" d="M60.059,140.179,61.9,141.4c.377-.568.823-1.093,1.247-1.625L61.419,138.4C60.954,138.981,60.472,139.556,60.059,140.179Z" transform="translate(-51.206 -124.93)"/>
        <path id="Trazado_994603" data-name="Trazado 994603" d="M82.827,118.373l-1.383-1.725c-.582.467-1.112,1-1.651,1.513l1.526,1.6C81.811,119.29,82.294,118.8,82.827,118.373Z" transform="translate(-68.03 -106.386)"/>
        <path id="Trazado_994604" data-name="Trazado 994604" d="M104.791,99.293a20.877,20.877,0,0,0-1.88,1.206l1.267,1.812a18.517,18.517,0,0,1,1.73-1.109Z" transform="translate(-87.742 -91.589)"/>
        <path id="Trazado_994605" data-name="Trazado 994605" d="M0,0H2.3V2.211H0Z" transform="translate(66.498 46.754) rotate(-45)"/>
        <path id="Trazado_994606" data-name="Trazado 994606" d="M74.416,84.71a3.435,3.435,0,0,0-5.018-.257c-.289.262-11.454,11.454-14.336,14.336l-2.273-2.273a29.942,29.942,0,1,0-7.188,6.126l-1.152-1.887a27.812,27.812,0,1,1,6.772-5.807l-.636-.636a3.993,3.993,0,0,0-2.679-1.43,3.411,3.411,0,0,0-3.53,3.051c-.186,1.947,1.4,3.14,2.624,4.368l8.062,8.062L66.33,97.094,64.767,95.53l-9.705,9.705c-1.1-1.1-8.148-8.039-8.336-8.392-.675-1.267.867-2.179,1.872-1.391a41.03,41.03,0,0,1,3.394,3.394l3.071,3.071,3.061-3.061L68.887,88.091c.635-.635,1.866-2.417,2.9-2.417a1.187,1.187,0,0,1,.83,2c-.192.252-2.143,2.143-2.868,2.868l1.563,1.564c1.865-1.865,5.471-4.486,3.1-7.4Z" transform="translate(0 -47.03)"/>
        <path id="Trazado_994607" data-name="Trazado 994607" d="M92.019,178.837c11.465.842,20.843-9.925,18.971-21.123a19.434,19.434,0,0,0-11.867,2A19.337,19.337,0,0,0,91.965,149.3a18.592,18.592,0,0,0-7.21,10.428,19.425,19.425,0,0,0-11.845-2.01,18.346,18.346,0,0,0,19.109,21.123Zm17-19.115a15.982,15.982,0,0,1-15.376,16.922l5.442-5.442-1.563-1.564-5.4,5.4A16.044,16.044,0,0,1,98.083,163,16.918,16.918,0,0,1,109.021,159.722Zm-34.142,0a16.224,16.224,0,0,1,13.96,6.413l1.8-1.283a16.738,16.738,0,0,0-3.9-3.9,16.773,16.773,0,0,1,5.2-8.849,17.375,17.375,0,0,1,5.2,8.841,18.3,18.3,0,0,0-7.22,15.74,16,16,0,0,1-15.046-16.964Z" transform="translate(-61.956 -134.223)"/>
      </g>
    </g>
  </g>
</svg>
