<svg xmlns="http://www.w3.org/2000/svg" xmlns:xlink="http://www.w3.org/1999/xlink" width="113" height="113" viewBox="0 0 113 113">
  <defs>
    <filter id="Trazado_982547" x="0" y="0" width="113" height="113" filterUnits="userSpaceOnUse">
      <feOffset dy="3" input="SourceAlpha"/>
      <feGaussianBlur stdDeviation="3" result="blur"/>
      <feFlood flood-opacity="0.161"/>
      <feComposite operator="in" in2="blur"/>
      <feComposite in="SourceGraphic"/>
    </filter>
  </defs>
  <g id="Grupo_1160629" data-name="Grupo 1160629" transform="translate(-1163 -5712)">
    <g id="Grupo_1159769" data-name="Grupo 1159769" transform="translate(0 1505)">
      <g id="Grupo_1158170" data-name="Grupo 1158170" transform="translate(-1 -1314)">
        <g id="Grupo_1152578" data-name="Grupo 1152578" transform="translate(0.046 1205.621)">
          <g id="Grupo_1148635" data-name="Grupo 1148635" transform="translate(908.908 600.047)">
            <g id="Grupo_1148525" data-name="Grupo 1148525" transform="translate(264.046 3721.333)">
              <g transform="matrix(1, 0, 0, 1, -9, -6)" filter="url(#Trazado_982547)">
                <g id="Trazado_982547-2" data-name="Trazado 982547" transform="translate(9 6)" fill="#fef2ec">
                  <path d="M 47.5 93.5 C 41.28937149047852 93.5 35.26533508300781 92.28397369384766 29.59518623352051 89.88570404052734 C 24.11771965026855 87.56893157958984 19.19813346862793 84.25196075439453 14.97309303283691 80.02691650390625 C 10.74804019927979 75.80186462402344 7.431066513061523 70.88229370117188 5.114293098449707 65.40481567382812 C 2.716026782989502 59.73468017578125 1.5 53.71062850952148 1.5 47.5 C 1.5 41.28937149047852 2.716026782989502 35.26533508300781 5.114293098449707 29.59518623352051 C 7.431066513061523 24.11771965026855 10.74804019927979 19.19813346862793 14.97309303283691 14.97309303283691 C 19.19813346862793 10.74804019927979 24.11771965026855 7.431066513061523 29.59518623352051 5.114293098449707 C 35.26533508300781 2.716026782989502 41.28937149047852 1.5 47.5 1.5 C 53.71062850952148 1.5 59.73468017578125 2.716026782989502 65.40481567382812 5.114293098449707 C 70.88229370117188 7.431066513061523 75.80186462402344 10.74804019927979 80.02691650390625 14.97309303283691 C 84.25196075439453 19.19813346862793 87.56893157958984 24.11771965026855 89.88570404052734 29.59518623352051 C 92.28397369384766 35.26533508300781 93.5 41.28937149047852 93.5 47.5 C 93.5 53.71062850952148 92.28397369384766 59.73468017578125 89.88570404052734 65.40481567382812 C 87.56893157958984 70.88229370117188 84.25196075439453 75.80186462402344 80.02691650390625 80.02691650390625 C 75.80186462402344 84.25196075439453 70.88229370117188 87.56893157958984 65.40481567382812 89.88570404052734 C 59.73468017578125 92.28397369384766 53.71062850952148 93.5 47.5 93.5 Z" stroke="none"/>
                  <path d="M 47.5 3 C 41.49121475219727 3 35.66376876831055 4.176155090332031 30.17950439453125 6.495796203613281 C 24.88084411621094 8.736953735351562 20.12152099609375 11.94598388671875 16.03375244140625 16.03375244140625 C 11.94598388671875 20.12152099609375 8.736953735351562 24.88084411621094 6.495796203613281 30.17950439453125 C 4.176155090332031 35.66376876831055 3 41.49121475219727 3 47.5 C 3 53.50878524780273 4.176155090332031 59.33623123168945 6.495796203613281 64.82049560546875 C 8.736953735351562 70.11915588378906 11.94598388671875 74.87847900390625 16.03375244140625 78.96624755859375 C 20.12152099609375 83.05401611328125 24.88084411621094 86.26304626464844 30.17950439453125 88.50419616699219 C 35.66376876831055 90.82384490966797 41.49121475219727 92 47.5 92 C 53.50878524780273 92 59.33623123168945 90.82384490966797 64.82049560546875 88.50419616699219 C 70.11915588378906 86.26304626464844 74.87847900390625 83.05401611328125 78.96624755859375 78.96624755859375 C 83.05401611328125 74.87847900390625 86.26304626464844 70.11915588378906 88.50419616699219 64.82049560546875 C 90.82384490966797 59.33623123168945 92 53.50878524780273 92 47.5 C 92 41.49121475219727 90.82384490966797 35.66376876831055 88.50419616699219 30.17950439453125 C 86.26304626464844 24.88084411621094 83.05401611328125 20.12152099609375 78.96624755859375 16.03375244140625 C 74.87847900390625 11.94598388671875 70.11915588378906 8.736953735351562 64.82049560546875 6.495796203613281 C 59.33623123168945 4.176155090332031 53.50878524780273 3 47.5 3 M 47.5 0 C 73.7335205078125 0 95 21.2664794921875 95 47.5 C 95 73.7335205078125 73.7335205078125 95 47.5 95 C 21.2664794921875 95 0 73.7335205078125 0 47.5 C 0 21.2664794921875 21.2664794921875 0 47.5 0 Z" stroke="none" fill="#fe8953"/>
                </g>
              </g>
            </g>
          </g>
        </g>
      </g>
    </g>
    <g id="Filled_outline" data-name="Filled outline" transform="translate(1172 5718)">
      <rect id="Rectángulo_409750" data-name="Rectángulo 409750" width="31.85" height="57.329" rx="15.925" transform="translate(31.925 21.096)" fill="#e0e0de"/>
      <path id="Trazado_994608" data-name="Trazado 994608" d="M136,104h31.672v42.23H136Z" transform="translate(-104.164 -76.387)" fill="#348fd9"/>
      <path id="Trazado_994609" data-name="Trazado 994609" d="M160.231,432.306a4.187,4.187,0,0,0,1.025.14h23.226a4.223,4.223,0,0,0,4.223-4.223V424H163.758Z" transform="translate(-125.197 -354.157)" fill="#d6d6d4"/>
      <path id="Trazado_994610" data-name="Trazado 994610" d="M325.64,56h-.1l-2.69,6.334h7.014V60.223A4.223,4.223,0,0,0,325.64,56Z" transform="translate(-266.355 -34.721)" fill="#d6d6d4"/>
      <path id="Trazado_994611" data-name="Trazado 994611" d="M186.959,146.23h24.947V104h-7.014Z" transform="translate(-148.398 -76.387)" fill="#3086cd"/>
      <path id="Trazado_994612" data-name="Trazado 994612" d="M148.669,278.78v-6.334a4.223,4.223,0,0,0-4.223-4.223h-2.111L143.39,264,136,268.223V283h8.446A4.223,4.223,0,0,0,148.669,278.78Z" transform="translate(-104.164 -215.272)" fill="#3086cd"/>
      <path id="Trazado_994613" data-name="Trazado 994613" d="M309.729,224.932,302.839,216v16.892l-4.751-4.751a3.733,3.733,0,0,0-5.279,5.279l6.862,6.862-.473.71a9.245,9.245,0,0,0,.473,10.9H312.34V231.883a10.557,10.557,0,0,0-2.611-6.951Z" transform="translate(-239.33 -173.606)" fill="#fec9a3"/>
      <path id="Trazado_994614" data-name="Trazado 994614" d="M47.226,45.115H38.78l1.056,5.279-7.39-5.279H28.223A4.223,4.223,0,0,1,24,40.892V28.223A4.223,4.223,0,0,1,28.223,24h19a4.223,4.223,0,0,1,4.223,4.223V40.892A4.223,4.223,0,0,1,47.226,45.115Z" transform="translate(-6.944 -6.944)" fill="#ffb531"/>
      <path id="Trazado_994615" data-name="Trazado 994615" d="M138.111,116.669h8.446a4.223,4.223,0,0,0,4.223-4.223V104H136v15.685l3.167,2.262Z" transform="translate(-104.164 -76.387)" fill="#3086cd"/>
      <path id="Trazado_994616" data-name="Trazado 994616" d="M45.115,252.223H43L44.059,248l-7.39,4.223H28.223A4.223,4.223,0,0,0,24,256.446v6.334A4.223,4.223,0,0,0,28.223,267H45.115a4.223,4.223,0,0,0,4.223-4.223v-6.334A4.223,4.223,0,0,0,45.115,252.223Z" transform="translate(-6.944 -201.383)" fill="#60d1e0"/>
      <path id="Trazado_994617" data-name="Trazado 994617" d="M83.534,280h-.2c-4.319,6.5-10.4,11.532-15.071,14.78H83.534a4.223,4.223,0,0,0,4.223-4.223v-6.334A4.223,4.223,0,0,0,83.534,280Z" transform="translate(-45.363 -229.16)" fill="#5ac6d4"/>
      <path id="Trazado_994618" data-name="Trazado 994618" d="M373.279,342.334a1.052,1.052,0,0,1-.746-.309l-4.223-4.223a1.056,1.056,0,1,1,1.493-1.493l4.223,4.223a1.056,1.056,0,0,1-.746,1.8Z" transform="translate(-305.547 -277.77)" fill="#f7a468"/>
      <path id="Trazado_994619" data-name="Trazado 994619" d="M57.1,31.894c-7.311,9.125-17.53,14.794-24.892,18.651a4.2,4.2,0,0,0,3.139,1.422h4.223l7.39,5.279-1.056-5.279h8.446a4.223,4.223,0,0,0,4.223-4.223V35.075A4.194,4.194,0,0,0,57.1,31.894Z" transform="translate(-14.073 -13.796)" fill="#ffa912"/>
      <path id="Trazado_994620" data-name="Trazado 994620" d="M80,96h8.446v6.334H80Z" transform="translate(-55.554 -69.443)" fill="#f35244"/>
      <g id="Grupo_1160628" data-name="Grupo 1160628" transform="translate(23.644 21.096)">
        <ellipse id="Elipse_11692" data-name="Elipse 11692" cx="2.548" cy="2.866" rx="2.548" ry="2.866" transform="translate(0 0)" fill="#de4132"/>
        <ellipse id="Elipse_11693" data-name="Elipse 11693" cx="2.548" cy="2.866" rx="2.548" ry="2.866" transform="translate(5.096 0)" fill="#de4132"/>
        <path id="Trazado_994621" data-name="Trazado 994621" d="M144,98.111,148.223,96v6.334L144,100.223Z" transform="translate(-134.752 -90.538)" fill="#de4132"/>
      </g>
      <path id="Trazado_994622" data-name="Trazado 994622" d="M376,216v11.045l5.347-4.113Z" transform="translate(-312.491 -173.606)" fill="#fec093"/>
      <path id="Trazado_994623" data-name="Trazado 994623" d="M293.561,92.223v12.669a4.223,4.223,0,0,1-4.223,4.223h-5.279l-7.39,5.279,1.056-5.279h-9.5A4.22,4.22,0,0,1,264,104.892V92.223A4.223,4.223,0,0,1,268.223,88h21.115a4.22,4.22,0,0,1,4.223,4.223Z" transform="translate(-215.272 -62.498)" fill="#4db7e5"/>
      <path id="Trazado_994624" data-name="Trazado 994624" d="M307.614,95.895v12.669a4.223,4.223,0,0,1-4.223,4.223h-5.279l-7.39,5.279,1.056-5.279h-9.5a4.21,4.21,0,0,1-2.086-.55c9.861-4.669,18.724-11.183,25.3-20.006A4.223,4.223,0,0,1,307.614,95.895Z" transform="translate(-229.325 -66.17)" fill="#48add9"/>
      <ellipse id="Elipse_11694" data-name="Elipse 11694" cx="3.185" cy="2.866" rx="3.185" ry="2.866" transform="translate(62.5 30.014)" fill="#f35244"/>
      <path id="Trazado_994625" data-name="Trazado 994625" d="M293.561,174.334a4.223,4.223,0,0,1-4.223,4.223h-5.279l-7.39,5.279,1.056-5.279h-9.5A4.22,4.22,0,0,1,264,174.334L272.446,168l4.8,3.6,3.645,2.734,6.334-4.223Z" transform="translate(-215.272 -131.941)" fill="#7eb457"/>
      <path id="Trazado_994626" data-name="Trazado 994626" d="M307.614,188.223a4.223,4.223,0,0,1-4.223,4.223h-5.279l-7.39,5.279,1.056-5.279h-9.5a4.21,4.21,0,0,1-2.086-.55,76.731,76.731,0,0,0,11.11-6.407l3.645,2.734L301.28,184Z" transform="translate(-229.325 -145.829)" fill="#77ad50"/>
      <path id="Trazado_994627" data-name="Trazado 994627" d="M248,448h2.111v2.112H248Z" transform="translate(-201.383 -374.99)"/>
      <path id="Trazado_994628" data-name="Trazado 994628" d="M21.279,39.226h3.885l7.115,5.082a1.056,1.056,0,0,0,1.649-1.067l-.8-4.016h7.158a5.285,5.285,0,0,0,5.279-5.279V21.279A5.285,5.285,0,0,0,40.282,16h-19A5.285,5.285,0,0,0,16,21.279V33.948a5.285,5.285,0,0,0,5.279,5.279ZM18.112,21.279a3.171,3.171,0,0,1,3.167-3.167h19a3.171,3.171,0,0,1,3.167,3.167V33.948a3.171,3.171,0,0,1-3.167,3.167H31.836A1.056,1.056,0,0,0,30.8,38.378l.532,2.66-5.218-3.727a1.056,1.056,0,0,0-.613-.2H21.279a3.171,3.171,0,0,1-3.167-3.167Z" transform="translate(0)"/>
      <path id="Trazado_994629" data-name="Trazado 994629" d="M65.122,54.407v6.334A1.056,1.056,0,0,0,66.177,61.8h8.446a1.056,1.056,0,0,0,1.056-1.056v-.4l2.7,1.348a1.056,1.056,0,0,0,1.528-.944V54.407a1.056,1.056,0,0,0-1.528-.944l-2.7,1.348v-.4c0-.018-.009-.032-.01-.049A3.69,3.69,0,1,0,70.4,49.19a3.69,3.69,0,1,0-5.269,5.168C65.131,54.375,65.122,54.389,65.122,54.407Zm8.446,5.279H67.233V55.463h6.334Zm4.223-3.57v2.918l-2.111-1.056v-.806ZM73.04,50.184a1.584,1.584,0,1,1-1.584,1.584A1.584,1.584,0,0,1,73.04,50.184Zm-5.279,0a1.584,1.584,0,1,1-1.584,1.584,1.584,1.584,0,0,1,1.584-1.584Z" transform="translate(-41.731 -27.849)"/>
      <path id="Trazado_994630" data-name="Trazado 994630" d="M171.286,52.223h-9.608A5.288,5.288,0,0,0,156.505,48H144.892v2.111h11.613a3.162,3.162,0,0,1,2.973,2.111h-9.307a5.285,5.285,0,0,0-5.279,5.279V70.171a5.285,5.285,0,0,0,5.279,5.279h8.214l-.8,4.016a1.056,1.056,0,0,0,1.649,1.067l.442-.316v4.3l-2.949-2.949a4.788,4.788,0,0,0-6.772,6.772l6.248,6.248a9.921,9.921,0,0,0-.991,1.98H128v5.279a5.285,5.285,0,0,0,5.279,5.279H170.23a1.056,1.056,0,0,0,1.056-1.056V86.049a11.56,11.56,0,0,0-2.827-7.592l-2.246-2.913.133-.095h4.941a5.285,5.285,0,0,0,5.279-5.279V57.5A5.285,5.285,0,0,0,171.286,52.223Zm-21.115,2.111h21.115a3.171,3.171,0,0,1,3.167,3.167V68.2l-4.693-3.129a1.057,1.057,0,0,0-1.171,0l-5.713,3.808-7.849-5.886a1.055,1.055,0,0,0-1.266,0L147,68.059V57.5A3.171,3.171,0,0,1,150.171,54.334Zm-20.059,47.509V98.676H154.62a10.284,10.284,0,0,0,1.03,6.334H133.279A3.171,3.171,0,0,1,130.111,101.843ZM166.828,79.8a9.5,9.5,0,0,1,2.347,6.253V105.01h-11.08a8.18,8.18,0,0,1-1.146-7.09,7.92,7.92,0,0,1,1.014-2.171l.475-.707a1.056,1.056,0,0,0-.13-1.335l-6.862-6.862a2.677,2.677,0,0,1,3.786-3.785l8.974,8.974L165.7,90.54l-3.913-3.914V78.707l2.709-1.935Zm4.458-6.459h-5.279a1.056,1.056,0,0,0-.613.2l-5.218,3.727.532-2.66a1.056,1.056,0,0,0-1.035-1.263h-9.5a3.164,3.164,0,0,1-3.118-2.677l7.341-5.505,7.813,5.859a1.055,1.055,0,0,0,1.219.034l5.749-3.833L174.4,70.7A3.165,3.165,0,0,1,171.286,73.338Z" transform="translate(-97.22 -27.777)"/>
      <path id="Trazado_994631" data-name="Trazado 994631" d="M364.223,120.446A4.223,4.223,0,1,0,360,116.223a4.223,4.223,0,0,0,4.223,4.223Zm0-6.334a2.111,2.111,0,1,1-2.111,2.111A2.111,2.111,0,0,1,364.223,114.111Z" transform="translate(-298.603 -83.331)"/>
      <path id="Trazado_994632" data-name="Trazado 994632" d="M21.279,261.118H38.171a5.285,5.285,0,0,0,5.279-5.279V249.5a5.285,5.285,0,0,0-5.279-5.279h-.759l.727-2.911a1.056,1.056,0,0,0-1.548-1.173l-7.147,4.084H21.279A5.285,5.285,0,0,0,16,249.5v6.334A5.285,5.285,0,0,0,21.279,261.118ZM18.111,249.5a3.171,3.171,0,0,1,3.167-3.167h8.446a1.055,1.055,0,0,0,.524-.139l5.243-3-.456,1.823a1.056,1.056,0,0,0,1.024,1.312h2.111a3.171,3.171,0,0,1,3.167,3.167v6.334a3.171,3.171,0,0,1-3.167,3.167H21.279a3.171,3.171,0,0,1-3.167-3.167Z" transform="translate(0 -194.442)"/>
      <path id="Trazado_994633" data-name="Trazado 994633" d="M48,312H59.613v2.111H48Z" transform="translate(-27.777 -256.937)"/>
      <path id="Trazado_994634" data-name="Trazado 994634" d="M152,312h5.279v2.111H152Z" transform="translate(-118.052 -256.937)"/>
      <path id="Trazado_994635" data-name="Trazado 994635" d="M48,344H67v2.111H48Z" transform="translate(-27.777 -284.714)"/>
    </g>
  </g>
</svg>
