<svg xmlns="http://www.w3.org/2000/svg" xmlns:xlink="http://www.w3.org/1999/xlink" width="508" height="436" viewBox="0 0 508 436">
  <defs>
    <clipPath id="clip-path">
      <rect id="Rect치ngulo_409757" data-name="Rect치ngulo 409757" width="508" height="436" transform="translate(223 6067)" fill="#fff" stroke="#707070" stroke-width="1" opacity="0.61"/>
    </clipPath>
    <filter id="Elipse_11698" x="-5.526" y="51.001" width="518.331" height="518.331" filterUnits="userSpaceOnUse">
      <feOffset dy="3" input="SourceAlpha"/>
      <feGaussianBlur stdDeviation="3" result="blur"/>
      <feFlood flood-opacity="0.161"/>
      <feComposite operator="in" in2="blur"/>
      <feComposite in="SourceGraphic"/>
    </filter>
  </defs>
  <g id="Enmascarar_grupo_1098763" data-name="Enmascarar grupo 1098763" transform="translate(-223 -6067)" clip-path="url(#clip-path)">
    <g id="Grupo_1160873" data-name="Grupo 1160873" transform="translate(-10)">
      <g id="Grupo_1160733" data-name="Grupo 1160733" transform="translate(163.296 6050.813)">
        <g transform="matrix(1, 0, 0, 1, 69.7, 16.19)" filter="url(#Elipse_11698)">
          <circle id="Elipse_11698-2" data-name="Elipse 11698" cx="250.165" cy="250.165" r="250.165" transform="translate(3.47 57)" fill="#fff"/>
        </g>
        <circle id="Elipse_11699" data-name="Elipse 11699" cx="228.644" cy="228.644" r="228.644" transform="translate(323.352 646.704) rotate(-135)" fill="#9b4467"/>
      </g>
      <g id="Grupo_1160732" data-name="Grupo 1160732" transform="translate(2479.273 557.886)">
        <circle id="Elipse_11695" data-name="Elipse 11695" cx="56.145" cy="56.145" r="56.145" transform="translate(-2207.273 5651.546)" fill="#7ecfe7"/>
        <g id="Grupo_1160682" data-name="Grupo 1160682" transform="translate(-2161.793 5665.197)">
          <path id="Trazado_994656" data-name="Trazado 994656" d="M421.516,518.169v8.085H75.485v-8.085a20.8,20.8,0,0,1,20.791-20.8H400.713A20.8,20.8,0,0,1,421.516,518.169Z" transform="translate(-74.553 -496.432)" fill="#7ecfe7"/>
          <path id="Trazado_994657" data-name="Trazado 994657" d="M421.516,574.788V803.582a20.8,20.8,0,0,1-20.8,20.791H96.276a20.8,20.8,0,0,1-20.791-20.791V574.788Z" transform="translate(-74.553 -544.966)" fill="#fff"/>
          <g id="Grupo_1160678" data-name="Grupo 1160678" transform="translate(0 0)">
            <path id="Trazado_994658" data-name="Trazado 994658" d="M399.146,775.207H94.709a21.748,21.748,0,0,1-21.723-21.723V516.6a21.755,21.755,0,0,1,21.723-21.737H399.146A21.761,21.761,0,0,1,420.883,516.6V753.482A21.756,21.756,0,0,1,399.146,775.207ZM94.709,496.732A19.887,19.887,0,0,0,74.852,516.6V753.482A19.88,19.88,0,0,0,94.709,773.34H399.146a19.886,19.886,0,0,0,19.871-19.858V516.6a19.893,19.893,0,0,0-19.871-19.871Z" transform="translate(-72.986 -494.866)" fill="#29275f"/>
          </g>
          <g id="Grupo_1160679" data-name="Grupo 1160679" transform="translate(161.736 28.889)">
            <path id="Trazado_994659" data-name="Trazado 994659" d="M691.666,574.155h-184.3a.933.933,0,1,1,0-1.866h184.3a.933.933,0,1,1,0,1.866Z" transform="translate(-506.438 -572.289)" fill="#29275f"/>
          </g>
          <g id="Grupo_1160680" data-name="Grupo 1160680" transform="translate(0 28.889)">
            <path id="Trazado_994660" data-name="Trazado 994660" d="M211.842,574.155H73.919a.933.933,0,1,1,0-1.866H211.842a.933.933,0,1,1,0,1.866Z" transform="translate(-72.986 -572.289)" fill="#29275f"/>
          </g>
          <circle id="Elipse_11696" data-name="Elipse 11696" cx="6.546" cy="6.546" r="6.546" transform="translate(249.892 14.964) rotate(-45)" fill="#7351fa"/>
          <g id="Grupo_1160681" data-name="Grupo 1160681" transform="translate(314.831 7.485)">
            <path id="Trazado_994661" data-name="Trazado 994661" d="M924.214,529.882a7.479,7.479,0,1,1,7.478-7.479A7.488,7.488,0,0,1,924.214,529.882Zm0-13.092a5.613,5.613,0,1,0,5.613,5.613A5.619,5.619,0,0,0,924.214,516.791Z" transform="translate(-916.735 -514.925)" fill="#29275f"/>
          </g>
          <circle id="Elipse_11697" data-name="Elipse 11697" cx="6.546" cy="6.546" r="6.546" transform="translate(282.263 20.682) rotate(-76.714)" fill="#ecb85e"/>
        </g>
        <g id="Grupo_1160683" data-name="Grupo 1160683" transform="translate(-2118.526 5816.186)">
          <path id="Trazado_994662" data-name="Trazado 994662" d="M249.769,1028.417h-44.8a.933.933,0,0,1-.933-.929l-.374-84.995H189.873a.932.932,0,0,1-.692-1.557L226.3,899.825a.93.93,0,0,1,.692-.308h0a.928.928,0,0,1,.692.308l37.1,41.111a.932.932,0,0,1-.692,1.557H250.327l.374,84.988a.932.932,0,0,1-.933.937Zm-43.875-1.866h42.937l-.374-84.988a.933.933,0,0,1,.933-.937h12.6l-35-38.786-35.016,38.786h12.615a.933.933,0,0,1,.933.929Z" transform="translate(-188.94 -899.517)" fill="#29275f"/>
        </g>
        <g id="Grupo_1160684" data-name="Grupo 1160684" transform="translate(-1934.574 5782.637)">
          <path id="Trazado_994663" data-name="Trazado 994663" d="M742.38,971.861h-44.8a.932.932,0,0,1-.933-.933V852.583H682.864a.932.932,0,0,1-.692-1.557l37.115-41.112a.932.932,0,0,1,.692-.308h0a.931.931,0,0,1,.692.308l37.1,41.112a.932.932,0,0,1-.692,1.557H743.312V970.927A.933.933,0,0,1,742.38,971.861ZM698.51,970h42.936V851.65a.932.932,0,0,1,.933-.933h12.6l-35-38.787-35.016,38.787h12.615a.932.932,0,0,1,.933.933Z" transform="translate(-681.931 -809.606)" fill="#29275f"/>
        </g>
        <g id="Grupo_1160686" data-name="Grupo 1160686" transform="translate(-2133.444 5716.95)">
          <path id="Trazado_994664" data-name="Trazado 994664" d="M220.226,685.9l9.246,3.4a42.048,42.048,0,0,1-7.17,12.517l-7.674-6.479a31.057,31.057,0,0,1-8.429,6.982l5.032,8.743a41.084,41.084,0,0,1-13.524,4.906l-1.761-9.938a33.842,33.842,0,0,1-10.881,0l-1.76,9.938a41.056,41.056,0,0,1-13.524-4.906l5.032-8.743a31.058,31.058,0,0,1-8.429-6.982l-7.673,6.479a42.054,42.054,0,0,1-7.17-12.517l9.246-3.4a31.978,31.978,0,0,1-2.013-10.756H148.96a42.094,42.094,0,0,1,2.58-14.215l9.057,3.334a30.668,30.668,0,0,1,5.471-9.687l-7.359-6.164a41.333,41.333,0,0,1,11.071-9.247l4.718,8.24a29.774,29.774,0,0,1,10.441-3.837l-1.634-9.309a35.08,35.08,0,0,1,3.584-.5l3.586-.188,3.647.188a35.048,35.048,0,0,1,3.586.5l-1.635,9.309a29.764,29.764,0,0,1,10.442,3.837l4.718-8.24a41.32,41.32,0,0,1,11.07,9.247l-7.36,6.164a30.644,30.644,0,0,1,5.473,9.687l9.057-3.334a42.131,42.131,0,0,1,2.58,14.215h-9.876A30.5,30.5,0,0,1,220.226,685.9Z" transform="translate(-148.96 -633.567)" fill="#ecb85e"/>
          <g id="Grupo_1160685" data-name="Grupo 1160685" transform="translate(18.356 18.01)">
            <path id="Trazado_994665" data-name="Trazado 994665" d="M221.344,728.213a23.19,23.19,0,1,1,23.19-23.19A23.217,23.217,0,0,1,221.344,728.213Zm0-44.515a21.324,21.324,0,1,0,21.324,21.324A21.349,21.349,0,0,0,221.344,683.7Z" transform="translate(-198.154 -681.833)" fill="#29275f"/>
          </g>
        </g>
        <g id="Grupo_1160701" data-name="Grupo 1160701" transform="translate(-2080.45 5546.59)">
          <rect id="Rect치ngulo_409753" data-name="Rect치ngulo 409753" width="58.78" height="163.568" transform="translate(61.777 233.094)" fill="#ecb85e"/>
          <path id="Trazado_994666" data-name="Trazado 994666" d="M515.21,772.271v18.613q-8.625,1.645-17.325,2.481-8.928.863-17.889.862t-17.9-.862q-8.7-.831-17.325-2.481V772.271a179.31,179.31,0,0,0,25.545,2.289h.032a1.148,1.148,0,0,1,.192.011c1.182.032,2.406.053,3.673.085,1.842.021,3.769.043,5.782.043s3.929-.021,5.771-.043c1.267-.032,2.492-.053,3.673-.085a.967.967,0,0,1,.171-.011h.085A178.942,178.942,0,0,0,515.21,772.271Z" transform="translate(-387.389 -550.155)" fill="#7351fa"/>
          <path id="Trazado_994667" data-name="Trazado 994667" d="M340.521,578.893h-.011l-17.154,27.962a4.953,4.953,0,0,1-8.38.117c-8.7-13.481-26.887-44.445-19.923-58.362,8.912-17.814,34.223-48.374,34.872-49.151C332.695,527.09,337.337,558.661,340.521,578.893Z" transform="translate(-292.561 -379.138)" fill="#7351fa"/>
          <path id="Trazado_994668" data-name="Trazado 994668" d="M501.337,245.052a485,485,0,0,1-111.283,0l.16-.383C404.833,212,445.7,179.5,445.7,179.5s40.857,32.5,55.476,65.166Z" transform="translate(-353.088 -178.568)" fill="#7351fa"/>
          <path id="Trazado_994669" data-name="Trazado 994669" d="M497.778,409.012c-2.758,27.632-7.411,59.193-10.584,79.435-1.991,12.714-3.408,20.956-3.408,20.956a.081.081,0,0,0-.032.011,45.687,45.687,0,0,1-5.995,1.395,178.9,178.9,0,0,1-25.513,2.289h-.085a.956.956,0,0,0-.171.011c-1.182.032-2.406.053-3.673.085-1.842.021-3.759.043-5.771.043s-3.94-.021-5.782-.043c-1.267-.032-2.492-.053-3.673-.085a1.134,1.134,0,0,0-.192-.011h-.032a179.372,179.372,0,0,1-25.545-2.289,45.725,45.725,0,0,1-5.984-1.395.081.081,0,0,0-.032-.011s-1.416-8.242-3.407-20.956c-3.184-20.231-7.826-51.8-10.595-79.435-2.449-24.746-3.4-46.341-.4-53.837a485,485,0,0,0,111.283,0C501.175,362.671,500.238,384.266,497.778,409.012Z" transform="translate(-349.939 -288.692)" fill="#fff"/>
          <path id="Trazado_994670" data-name="Trazado 994670" d="M476.9,420.125a37.071,37.071,0,1,0,37.066,37.066A37.059,37.059,0,0,0,476.9,420.125Zm0,62.2a25.129,25.129,0,1,1,25.129-25.129A25.121,25.121,0,0,1,476.9,482.32Z" transform="translate(-384.294 -329.407)" fill="#7351fa"/>
          <path id="Trazado_994671" data-name="Trazado 994671" d="M684.363,606.972a4.953,4.953,0,0,1-8.38-.117l-17.154-27.962c3.173-20.242,7.827-51.8,10.584-79.435.65.777,25.971,31.337,34.884,49.151C711.249,562.526,693.073,593.491,684.363,606.972Z" transform="translate(-521.574 -379.138)" fill="#7351fa"/>
          <g id="Grupo_1160687" data-name="Grupo 1160687" transform="translate(0 119.388)">
            <path id="Trazado_994672" data-name="Trazado 994672" d="M317.546,608.591a5.841,5.841,0,0,1-4.928-2.679c-10.444-16.182-26.923-45.4-19.975-59.287,9.058-18.1,34.734-49.024,34.991-49.332a.933.933,0,0,1,1.644.506c2.9,28.95,7.879,62.162,10.588,79.382a.934.934,0,0,1-.2.736l-17.091,27.858a5.866,5.866,0,0,1-4.953,2.817Zm10.1-108.377c-5.516,6.756-25.6,31.782-33.336,47.245-6.779,13.546,11.64,44.682,19.872,57.44a4.02,4.02,0,0,0,6.8-.1l16.984-27.682C335.313,560.226,330.559,528.47,327.648,500.214Z" transform="translate(-290.984 -496.959)" fill="#29275f"/>
          </g>
          <g id="Grupo_1160688" data-name="Grupo 1160688" transform="translate(36.027 0)">
            <path id="Trazado_994673" data-name="Trazado 994673" d="M444.113,247.615a486.064,486.064,0,0,1-55.749-3.2.933.933,0,0,1-.755-1.287l.159-.381c14.556-32.524,55.358-65.213,55.769-65.539a.929.929,0,0,1,1.16,0c.411.326,41.2,33.015,55.748,65.515l.11.264a1.083,1.083,0,0,1-.026.9.973.973,0,0,1-.669.526A485.854,485.854,0,0,1,444.113,247.615ZM389.837,242.7a484.688,484.688,0,0,0,108.552,0c-13.675-29.711-49.283-59.489-54.271-63.566C439.131,183.211,403.523,212.984,389.837,242.7Z" transform="translate(-387.538 -177)" fill="#29275f"/>
          </g>
          <g id="Grupo_1160690" data-name="Grupo 1160690" transform="translate(54.604 89.783)">
            <g id="Grupo_1160689" data-name="Grupo 1160689">
              <path id="Trazado_994674" data-name="Trazado 994674" d="M475.326,493.625a38,38,0,1,1,38-38A38.047,38.047,0,0,1,475.326,493.625Zm0-74.141a36.138,36.138,0,1,0,36.138,36.138A36.178,36.178,0,0,0,475.326,419.484Z" transform="translate(-437.322 -417.618)" fill="#29275f"/>
            </g>
          </g>
          <g id="Grupo_1160691" data-name="Grupo 1160691" transform="translate(136.321 119.387)">
            <path id="Trazado_994675" data-name="Trazado 994675" d="M678.649,608.591h-.076a5.868,5.868,0,0,1-4.954-2.817l-17.155-27.962a.935.935,0,0,1-.126-.632c3.333-21.257,7.875-52.285,10.578-79.382a.933.933,0,0,1,1.644-.506c.257.308,25.959,31.26,35,49.332,6.952,13.915-9.537,43.117-19.985,59.286h0A5.839,5.839,0,0,1,678.649,608.591ZM658.235,577.13,675.21,604.8a4.013,4.013,0,0,0,3.387,1.926,3.913,3.913,0,0,0,3.414-1.828c8.236-12.747,26.664-43.863,19.882-57.438-7.724-15.437-27.827-40.485-33.347-47.245C665.832,526.667,661.475,556.443,658.235,577.13ZM682.794,605.4h0Z" transform="translate(-656.326 -496.958)" fill="#29275f"/>
          </g>
          <g id="Grupo_1160692" data-name="Grupo 1160692" transform="translate(56.451 221.181)">
            <path id="Trazado_994676" data-name="Trazado 994676" d="M478.43,793.589c-5.979,0-12.031-.291-17.988-.867-5.787-.552-11.645-1.391-17.41-2.493a.933.933,0,0,1-.758-.916V770.7a.932.932,0,0,1,1.1-.918,178.96,178.96,0,0,0,25.409,2.275c.1.012.237,0,.353.025l3.54.071c3.653.045,7.842.045,11.518,0l3.659-.085.2-.011a178.445,178.445,0,0,0,25.435-2.275.917.917,0,0,1,.763.2.935.935,0,0,1,.333.715v18.613a.932.932,0,0,1-.758.916c-5.777,1.1-11.635,1.94-17.411,2.493C490.452,793.3,484.4,793.589,478.43,793.589Zm-34.29-5.05c5.463,1.021,11,1.8,16.48,2.326a185.9,185.9,0,0,0,35.61,0c5.466-.523,11.006-1.3,16.481-2.326V771.807a186.85,186.85,0,0,1-24.551,2.115c-.044.007-.215.009-.259.011l-3.676.085c-3.715.045-7.894.045-11.587,0l-3.688-.085-.166-.944-.033.933a187.4,187.4,0,0,1-24.611-2.116v16.734Z" transform="translate(-442.274 -769.764)" fill="#29275f"/>
          </g>
          <g id="Grupo_1160693" data-name="Grupo 1160693" transform="translate(34.171 65.551)">
            <path id="Trazado_994677" data-name="Trazado 994677" d="M441,512.6c-2.016,0-3.946-.021-5.792-.043l-3.688-.085-.166-.944-.033.933a180.952,180.952,0,0,1-25.707-2.3,51.113,51.113,0,0,1-6.074-1.414v0a.932.932,0,0,1-.7-.749c-.014-.082-1.441-8.394-3.411-20.969-2.712-17.238-7.7-50.489-10.6-79.485-2.9-29.316-3.016-47.576-.343-54.276a.948.948,0,0,1,.973-.58,484.7,484.7,0,0,0,111.07,0,.942.942,0,0,1,.973.58c2.684,6.723,2.569,24.984-.343,54.275h0c-2.708,27.139-7.254,58.2-10.591,79.486-1.969,12.574-3.4,20.886-3.41,20.968a.933.933,0,0,1-.657.738l-.042.014a50.927,50.927,0,0,1-6.082,1.415,180.294,180.294,0,0,1-25.65,2.3c-.044.007-.215.009-.259.011l-3.676.085C444.936,512.58,443.017,512.6,441,512.6Zm-9.636-2a2,2,0,0,1,.339.025l3.54.071c3.653.045,7.843.045,11.518,0l3.659-.085.2-.011a178.453,178.453,0,0,0,25.435-2.275,51.9,51.9,0,0,0,5.367-1.209c.352-2.068,1.633-9.677,3.309-20.378,3.333-21.257,7.875-52.287,10.578-79.382h0c2.788-28.047,3.025-45.776.709-52.734a486.511,486.511,0,0,1-110.035,0c-2.307,6.937-2.069,24.665.709,52.734,2.9,28.949,7.879,62.161,10.588,79.381,1.679,10.719,2.962,18.334,3.31,20.388a54.9,54.9,0,0,0,5.357,1.2,178.878,178.878,0,0,0,25.406,2.275Zm64.869-103.152h0Z" transform="translate(-382.564 -352.676)" fill="#29275f"/>
          </g>
          <g id="Grupo_1160694" data-name="Grupo 1160694" transform="translate(47.027 198.82)">
            <path id="Trazado_994678" data-name="Trazado 994678" d="M461.311,715.925c-26.4,0-43.338-4.183-43.591-4.247a.933.933,0,1,1,.459-1.809c.374.1,38.094,9.4,88.9-.013a.933.933,0,1,1,.339,1.835A253.832,253.832,0,0,1,461.311,715.925Z" transform="translate(-417.016 -709.839)" fill="#29275f"/>
          </g>
          <g id="Grupo_1160695" data-name="Grupo 1160695" transform="translate(51.583 16.196)">
            <path id="Trazado_994679" data-name="Trazado 994679" d="M430.158,263.712a.933.933,0,0,1-.84-1.337c6.416-13.325,35.478-40.565,36.712-41.719a.933.933,0,1,1,1.273,1.363c-.3.281-30.04,28.154-36.3,41.164A.934.934,0,0,1,430.158,263.712Z" transform="translate(-429.226 -220.404)" fill="#29275f"/>
          </g>
          <g id="Grupo_1160696" data-name="Grupo 1160696" transform="translate(7.772 141.903)">
            <path id="Trazado_994680" data-name="Trazado 994680" d="M328.491,632.969a.933.933,0,0,1-.835-.516c-.635-1.273-15.541-31.27-15.84-40.446-.306-9.373,23.529-33.415,24.543-34.434a.933.933,0,1,1,1.323,1.318c-6.755,6.782-24.233,25.941-24,33.057.286,8.771,15.492,39.366,15.645,39.673a.932.932,0,0,1-.833,1.349Z" transform="translate(-311.812 -557.299)" fill="#29275f"/>
          </g>
          <g id="Grupo_1160697" data-name="Grupo 1160697" transform="translate(68.105 247.265)">
            <path id="Trazado_994681" data-name="Trazado 994681" d="M474.44,973.965a.932.932,0,0,1-.933-.933V840.6a.933.933,0,0,1,1.866,0v132.43A.93.93,0,0,1,474.44,973.965Z" transform="translate(-473.507 -839.671)" fill="#29275f"/>
          </g>
          <g id="Grupo_1160698" data-name="Grupo 1160698" transform="translate(80.553 281.153)">
            <path id="Trazado_994682" data-name="Trazado 994682" d="M507.8,1033.318a.932.932,0,0,1-.933-.933V931.423a.933.933,0,1,1,1.866,0v100.962A.933.933,0,0,1,507.8,1033.318Z" transform="translate(-506.867 -930.49)" fill="#29275f"/>
          </g>
          <g id="Grupo_1160699" data-name="Grupo 1160699" transform="translate(109.564 242.277)">
            <path id="Trazado_994683" data-name="Trazado 994683" d="M585.548,879.144a.932.932,0,0,1-.933-.933V827.235a.933.933,0,1,1,1.866,0v50.977A.932.932,0,0,1,585.548,879.144Z" transform="translate(-584.615 -826.302)" fill="#29275f"/>
          </g>
          <g id="Grupo_1160700" data-name="Grupo 1160700" transform="translate(109.564 318.839)">
            <path id="Trazado_994684" data-name="Trazado 994684" d="M585.548,1089.024a.932.932,0,0,1-.933-.933v-55.668a.933.933,0,1,1,1.866,0v55.669A.933.933,0,0,1,585.548,1089.024Z" transform="translate(-584.615 -1031.49)" fill="#29275f"/>
          </g>
        </g>
        <g id="Grupo_1160702" data-name="Grupo 1160702" transform="translate(-1885.389 5712.639)">
          <path id="Trazado_994685" data-name="Trazado 994685" d="M850.044,683.668a.934.934,0,0,1-.919-.772l-1.112-6.329a23.883,23.883,0,0,1-6.39,0l-1.112,6.329a.934.934,0,0,1-1.083.757,31.125,31.125,0,0,1-10.136-3.693.934.934,0,0,1-.341-1.275l3.2-5.527a23.984,23.984,0,0,1-4.935-4.093l-4.874,4.09a.911.911,0,0,1-.683.214.931.931,0,0,1-.633-.332,31.129,31.129,0,0,1-5.376-9.342.933.933,0,0,1,.557-1.2l5.873-2.142a23.559,23.559,0,0,1-1.174-6.345h-6.222a.933.933,0,0,1-.933-.94,31.589,31.589,0,0,1,1.9-10.619.932.932,0,0,1,1.2-.556l5.724,2.086a23.657,23.657,0,0,1,3.2-5.669l-4.631-3.889a.933.933,0,0,1-.119-1.308,30.3,30.3,0,0,1,8.273-6.927.932.932,0,0,1,1.273.341l2.987,5.164a23.515,23.515,0,0,1,6.15-2.255l-1.03-5.865a.933.933,0,0,1,.794-1.086c.273-.036.546-.08.818-.123a17.706,17.706,0,0,1,1.862-.229l2.625-.126,2.711.126a17.649,17.649,0,0,1,1.866.229c.272.043.545.087.818.123a.933.933,0,0,1,.794,1.086l-1.03,5.865a23.535,23.535,0,0,1,6.151,2.255l2.987-5.164a.93.93,0,0,1,1.274-.341,30.325,30.325,0,0,1,8.273,6.927.932.932,0,0,1-.12,1.308l-4.631,3.889a23.682,23.682,0,0,1,3.2,5.669l5.725-2.086a.935.935,0,0,1,1.2.557,31.587,31.587,0,0,1,1.9,10.619.933.933,0,0,1-.933.94h-6.222a23.544,23.544,0,0,1-1.172,6.345l5.873,2.142a.933.933,0,0,1,.557,1.2,31.162,31.162,0,0,1-5.377,9.342.932.932,0,0,1-.633.332.916.916,0,0,1-.682-.214l-4.874-4.09a23.941,23.941,0,0,1-4.935,4.093l3.2,5.527a.935.935,0,0,1-.342,1.275,31.115,31.115,0,0,1-10.137,3.693A.931.931,0,0,1,850.044,683.668Zm-1.27-9.1a.933.933,0,0,1,.919.772l1.1,6.295a29.264,29.264,0,0,0,7.8-2.839l-3.182-5.5a.934.934,0,0,1,.344-1.277,22.083,22.083,0,0,0,5.859-4.857.932.932,0,0,1,1.31-.109l4.842,4.061a29.312,29.312,0,0,0,4.136-7.186l-5.851-2.134a.934.934,0,0,1-.554-1.2,21.731,21.731,0,0,0,1.392-7.516.933.933,0,0,1,.933-.926H874a29.708,29.708,0,0,0-1.457-8.172l-5.706,2.08a.933.933,0,0,1-1.2-.569,21.839,21.839,0,0,0-3.785-6.709.932.932,0,0,1,.119-1.307l4.6-3.867a28.454,28.454,0,0,0-6.365-5.318l-2.973,5.141a.932.932,0,0,1-1.278.338A21.707,21.707,0,0,0,848.7,631.1a.933.933,0,0,1-.76-1.08l1.023-5.828a15.1,15.1,0,0,0-1.568-.191l-2.618-.127L842.24,624a15.06,15.06,0,0,0-1.564.191l1.024,5.828a.932.932,0,0,1-.76,1.08,21.7,21.7,0,0,0-7.263,2.662.953.953,0,0,1-.71.1.931.931,0,0,1-.568-.435l-2.974-5.141a28.4,28.4,0,0,0-6.365,5.318l4.6,3.867a.932.932,0,0,1,.119,1.307A21.849,21.849,0,0,0,824,645.484a.933.933,0,0,1-1.2.569l-5.7-2.08a29.643,29.643,0,0,0-1.457,8.172h6.176a.933.933,0,0,1,.933.926,21.719,21.719,0,0,0,1.393,7.516.934.934,0,0,1-.554,1.2l-5.851,2.134a29.249,29.249,0,0,0,4.136,7.186l4.842-4.061a.933.933,0,0,1,1.31.109,22.076,22.076,0,0,0,5.858,4.857.931.931,0,0,1,.343,1.277l-3.181,5.5a29.237,29.237,0,0,0,7.8,2.84l1.1-6.295a.936.936,0,0,1,.383-.6.948.948,0,0,1,.7-.155,21.965,21.965,0,0,0,7.588,0A.932.932,0,0,1,848.774,674.571Z" transform="translate(-813.749 -622.011)" fill="#29275f"/>
        </g>
        <g id="Grupo_1160703" data-name="Grupo 1160703" transform="translate(-1870.411 5727.379)">
          <path id="Trazado_994686" data-name="Trazado 994686" d="M869.981,693.69A16.087,16.087,0,1,1,886.073,677.6,16.11,16.11,0,0,1,869.981,693.69Zm0-30.308A14.221,14.221,0,1,0,884.207,677.6,14.238,14.238,0,0,0,869.981,663.382Z" transform="translate(-853.889 -661.516)" fill="#29275f"/>
        </g>
        <path id="Trazado_994687" data-name="Trazado 994687" d="M901.34,818.293a10.549,10.549,0,0,0-14.918,0,10.937,10.937,0,0,0-.821.921,10.548,10.548,0,0,0,14.816,14.816,10.152,10.152,0,0,0,.923-.818A10.549,10.549,0,0,0,901.34,818.293Zm-12.518,12.518a7.152,7.152,0,1,1,10.115,0A7.154,7.154,0,0,1,888.823,830.811Z" transform="translate(-2742.756 4969.521)" fill="#ecb85e"/>
        <path id="Trazado_994688" data-name="Trazado 994688" d="M119.578,599.322a10.549,10.549,0,0,0-14.918,0,10.908,10.908,0,0,0-.821.921,10.548,10.548,0,0,0,14.816,14.816,10.168,10.168,0,0,0,.923-.818A10.55,10.55,0,0,0,119.578,599.322ZM107.06,611.84a7.152,7.152,0,1,1,10.115,0A7.153,7.153,0,0,1,107.06,611.84Z" transform="translate(-2252.696 5106.786)" fill="#ecb85e"/>
        <g id="Grupo_1160704" data-name="Grupo 1160704" transform="translate(-2155.022 5792.089)">
          <path id="Trazado_994689" data-name="Trazado 994689" d="M118.4,881.338a.931.931,0,0,1-.919-.77l-.788-4.488a18.544,18.544,0,0,1-4.37,0l-.788,4.488a.936.936,0,0,1-.384.6.957.957,0,0,1-.7.153,23.534,23.534,0,0,1-7.627-2.778.936.936,0,0,1-.341-1.275l2.268-3.921a17.83,17.83,0,0,1-3.374-2.795l-3.463,2.906a.932.932,0,0,1-1.316-.117,23.8,23.8,0,0,1-4.038-7.033.933.933,0,0,1,.556-1.2l4.158-1.519a17.9,17.9,0,0,1-.806-4.344H92.062a.933.933,0,0,1-.933-.938,23.449,23.449,0,0,1,1.434-7.989.932.932,0,0,1,1.193-.556l4.042,1.467a17.719,17.719,0,0,1,2.2-3.875l-3.282-2.755A.932.932,0,0,1,96.6,843.3a23.055,23.055,0,0,1,6.228-5.218.933.933,0,0,1,1.275.339l2.113,3.646a17.617,17.617,0,0,1,4.216-1.536l-.731-4.147a.933.933,0,0,1,.8-1.088c.229-.029.456-.066.682-.1.44-.07.878-.14,1.322-.168l1.966-.085,2.041.084c.461.03.906.1,1.35.171.222.035.444.071.663.1a.934.934,0,0,1,.8,1.085l-.721,4.147a17.662,17.662,0,0,1,4.217,1.538l2.1-3.644a.943.943,0,0,1,.567-.435.926.926,0,0,1,.708.095,22.606,22.606,0,0,1,6.232,5.22.935.935,0,0,1-.12,1.306l-3.272,2.755a17.693,17.693,0,0,1,2.19,3.875l4.057-1.467a.929.929,0,0,1,1.193.556,23.849,23.849,0,0,1,1.433,7.984.933.933,0,0,1-.933.944H132.55a17.818,17.818,0,0,1-.794,4.344l4.16,1.519a.934.934,0,0,1,.556,1.2,23.841,23.841,0,0,1-4.053,7.033.93.93,0,0,1-.634.332.952.952,0,0,1-.683-.215l-3.451-2.908a18.147,18.147,0,0,1-3.384,2.8l2.268,3.921a.933.933,0,0,1-.34,1.273,23.247,23.247,0,0,1-7.629,2.78A1.076,1.076,0,0,1,118.4,881.338Zm-.944-7.246a.934.934,0,0,1,.918.77l.78,4.442a21.414,21.414,0,0,0,5.287-1.926l-2.249-3.888a.932.932,0,0,1,.344-1.275,16.306,16.306,0,0,0,4.313-3.564.938.938,0,0,1,1.311-.109l3.409,2.873a22.073,22.073,0,0,0,2.809-4.876l-4.124-1.507a.934.934,0,0,1-.553-1.2,16.007,16.007,0,0,0,1.011-5.517.933.933,0,0,1,.933-.927h4.362a22,22,0,0,0-.989-5.541l-4.028,1.456a.921.921,0,0,1-.718-.035.933.933,0,0,1-.48-.536,15.874,15.874,0,0,0-2.77-4.91.933.933,0,0,1,.118-1.308l3.24-2.728a20.768,20.768,0,0,0-4.322-3.609l-2.082,3.611a.933.933,0,0,1-1.279.339,15.8,15.8,0,0,0-5.33-1.942.934.934,0,0,1-.762-1.08L117.32,837c-.3-.047-.609-.091-.911-.111l-1.94-.082-1.866.084c-.293.018-.6.062-.9.109l.724,4.1a.933.933,0,0,1-.761,1.082,15.8,15.8,0,0,0-5.33,1.942.953.953,0,0,1-.709.1.933.933,0,0,1-.569-.434l-2.093-3.611a21.22,21.22,0,0,0-4.321,3.607l3.248,2.728a.932.932,0,0,1,.119,1.308,15.887,15.887,0,0,0-2.784,4.91.933.933,0,0,1-1.2.57l-4.015-1.456a21.6,21.6,0,0,0-.993,5.541h4.353a.933.933,0,0,1,.933.927,16.012,16.012,0,0,0,1.025,5.517.934.934,0,0,1-.553,1.2l-4.124,1.507a22,22,0,0,0,2.8,4.876l3.423-2.873a.93.93,0,0,1,1.313.113,16.009,16.009,0,0,0,4.3,3.56.932.932,0,0,1,.344,1.275l-2.247,3.886a21.611,21.611,0,0,0,5.285,1.926l.78-4.44a.916.916,0,0,1,1.079-.756,16.538,16.538,0,0,0,5.572,0A.808.808,0,0,1,117.457,874.092Z" transform="translate(-91.129 -834.94)" fill="#29275f"/>
        </g>
        <g id="Grupo_1160712" data-name="Grupo 1160712" transform="translate(-1918.016 5559.321)">
          <g id="Grupo_1160706" data-name="Grupo 1160706" transform="translate(0.934 0.933)">
            <g id="Grupo_1160705" data-name="Grupo 1160705">
              <path id="Trazado_994690" data-name="Trazado 994690" d="M819.668,226.231v51.213a12.656,12.656,0,0,1-12.612,12.612H787l-30.3,19.179,6.828-19.179H741.421a12.644,12.644,0,0,1-12.612-12.612V226.231a12.644,12.644,0,0,1,12.612-12.612h65.635A12.657,12.657,0,0,1,819.668,226.231Z" transform="translate(-728.809 -213.619)" fill="#fff"/>
            </g>
          </g>
          <g id="Grupo_1160709" data-name="Grupo 1160709" transform="translate(19.223 4.432)">
            <path id="Trazado_994691" data-name="Trazado 994691" d="M831.071,253.542q.126-1.286.127-2.6a25.438,25.438,0,1,0-50.876,0,45.643,45.643,0,0,0,.952,6.876c1.9,9.342,7.607,25.973,24.481,35.536h.3c19.911-11.288,24.259-32.4,25.19-39.789Zm-25.317-15.616a13.013,13.013,0,1,1-13.013,13.013A13,13,0,0,1,805.754,237.927Z" transform="translate(-779.389 -224.563)" fill="#ecb85e"/>
            <g id="Grupo_1160707" data-name="Grupo 1160707">
              <path id="Trazado_994692" data-name="Trazado 994692" d="M804.485,292.718h-.3a.934.934,0,0,1-.46-.121c-17.279-9.793-23.039-26.86-24.935-36.161a46.149,46.149,0,0,1-.97-7.031,26.37,26.37,0,1,1,52.741-.033c0,.724-.028,1.447-.084,2.155a.932.932,0,0,1,.119.586c-1.059,8.4-5.679,29.159-25.655,40.484A.934.934,0,0,1,804.485,292.718Zm-24.8-43.346a45.625,45.625,0,0,0,.933,6.688c1.821,8.937,7.322,25.278,23.715,34.735,18.623-10.743,23.224-30.1,24.352-38.45a.765.765,0,0,1-.111-.463c.081-.819.122-1.663.122-2.511a24.5,24.5,0,1,0-49.01,0Z" transform="translate(-777.824 -222.996)" fill="#29275f"/>
            </g>
            <g id="Grupo_1160708" data-name="Grupo 1160708" transform="translate(12.419 12.431)">
              <path id="Trazado_994693" data-name="Trazado 994693" d="M825.052,284.2A13.946,13.946,0,1,1,839,270.255,13.963,13.963,0,0,1,825.052,284.2Zm0-26.026a12.08,12.08,0,1,0,12.079,12.08A12.094,12.094,0,0,0,825.052,258.176Z" transform="translate(-811.106 -256.31)" fill="#29275f"/>
            </g>
          </g>
          <g id="Grupo_1160711" data-name="Grupo 1160711" transform="translate(0 0)">
            <g id="Grupo_1160710" data-name="Grupo 1160710">
              <path id="Trazado_994694" data-name="Trazado 994694" d="M755.132,308.6a.933.933,0,0,1-.879-1.245l6.385-17.935H739.852a13.56,13.56,0,0,1-13.545-13.544V224.664a13.561,13.561,0,0,1,13.545-13.546h65.635a13.561,13.561,0,0,1,13.545,13.546v51.213a13.56,13.56,0,0,1-13.545,13.544H785.7l-30.07,19.035A.933.933,0,0,1,755.132,308.6Zm-15.28-95.617a11.693,11.693,0,0,0-11.68,11.68v51.213a11.692,11.692,0,0,0,11.68,11.679H761.96a.933.933,0,0,1,.88,1.246l-5.921,16.633L784.932,287.7a.931.931,0,0,1,.5-.145h20.056a11.692,11.692,0,0,0,11.68-11.679V224.664a11.693,11.693,0,0,0-11.68-11.68Z" transform="translate(-726.307 -211.119)" fill="#29275f"/>
            </g>
          </g>
        </g>
        <g id="Grupo_1160717" data-name="Grupo 1160717" transform="translate(-2123.91 5512.927)">
          <g id="Grupo_1160715" data-name="Grupo 1160715" transform="translate(0.933 0.933)">
            <path id="Trazado_994695" data-name="Trazado 994695" d="M265.781,101.41v47.053a12.163,12.163,0,0,1-12.127,12.127h-21.81l6.679,18.75-29.59-18.75H189.138a12.163,12.163,0,0,1-12.127-12.127V101.41a12.174,12.174,0,0,1,12.127-12.127h64.516A12.175,12.175,0,0,1,265.781,101.41Z" transform="translate(-177.011 -89.283)" fill="#fff"/>
            <g id="Grupo_1160714" data-name="Grupo 1160714" transform="translate(12.898 4.438)">
              <path id="Trazado_994696" data-name="Trazado 994696" d="M244.633,151.87,225.748,161.8l3.607-21.028-15.278-14.892,21.113-3.068,9.442-19.132,9.442,19.132,21.113,3.068L259.91,140.77l3.607,21.028Z" transform="translate(-213.145 -102.745)" fill="#ecb85e"/>
              <g id="Grupo_1160713" data-name="Grupo 1160713">
                <path id="Trazado_994697" data-name="Trazado 994697" d="M261.95,161.163a.931.931,0,0,1-.434-.107l-18.449-9.7-18.451,9.7a.932.932,0,0,1-1.353-.983l3.523-20.544-14.926-14.55a.933.933,0,0,1,.518-1.591l20.628-3L242.23,101.7a.931.931,0,0,1,.836-.52h0a.931.931,0,0,1,.836.52l9.225,18.693,20.628,3a.933.933,0,0,1,.518,1.591l-14.928,14.551,3.524,20.544a.933.933,0,0,1-.919,1.09Zm-47.435-36.2,13.924,13.574a.933.933,0,0,1,.268.825l-3.287,19.165,17.212-9.048a.926.926,0,0,1,.868,0l17.21,9.048-3.287-19.165a.932.932,0,0,1,.268-.825l13.925-13.574-19.243-2.8a.931.931,0,0,1-.7-.51l-8.605-17.437-8.606,17.437a.931.931,0,0,1-.7.51Z" transform="translate(-211.578 -101.178)" fill="#29275f"/>
              </g>
            </g>
          </g>
          <g id="Grupo_1160716" data-name="Grupo 1160716" transform="translate(0 0)">
            <path id="Trazado_994698" data-name="Trazado 994698" d="M236.956,178.705a.934.934,0,0,1-.5-.145L207.1,159.955H187.571a13.075,13.075,0,0,1-13.06-13.06V99.842a13.075,13.075,0,0,1,13.06-13.06h64.516a13.075,13.075,0,0,1,13.06,13.06V146.9a13.075,13.075,0,0,1-13.06,13.06H231.6l6.236,17.5a.933.933,0,0,1-.879,1.246ZM187.571,88.648a11.206,11.206,0,0,0-11.194,11.194V146.9a11.206,11.206,0,0,0,11.194,11.194h19.795a.931.931,0,0,1,.5.145l27.3,17.3-5.771-16.2a.934.934,0,0,1,.88-1.246h21.811A11.206,11.206,0,0,0,263.282,146.9V99.842a11.206,11.206,0,0,0-11.194-11.194Z" transform="translate(-174.511 -86.782)" fill="#29275f"/>
          </g>
        </g>
        <g id="Grupo_1160722" data-name="Grupo 1160722" transform="translate(-2155 5607.129)">
          <g id="Grupo_1160721" data-name="Grupo 1160721" transform="translate(3.268 0)">
            <g id="Grupo_1160719" data-name="Grupo 1160719" transform="translate(5.112)">
              <path id="Trazado_994699" data-name="Trazado 994699" d="M114.579,351.334a.932.932,0,0,1-.933-.933V340.179a.933.933,0,1,1,1.866,0V350.4A.932.932,0,0,1,114.579,351.334Z" transform="translate(-113.646 -339.246)" fill="#29275f"/>
            </g>
            <g id="Grupo_1160720" data-name="Grupo 1160720" transform="translate(0 5.111)">
              <path id="Trazado_994700" data-name="Trazado 994700" d="M111.1,354.809H100.88a.933.933,0,1,1,0-1.866H111.1a.933.933,0,1,1,0,1.866Z" transform="translate(-99.947 -352.943)" fill="#29275f"/>
            </g>
          </g>
          <path id="Trazado_994701" data-name="Trazado 994701" d="M94.484,415.582c-4.391,0-4.4,6.823,0,6.823S98.882,415.582,94.484,415.582Z" transform="translate(-91.189 -387.098)" fill="#29275f"/>
        </g>
        <g id="Grupo_1160726" data-name="Grupo 1160726" transform="translate(-1952.296 5523.91)">
          <g id="Grupo_1160725" data-name="Grupo 1160725" transform="translate(0 22.891)">
            <g id="Grupo_1160723" data-name="Grupo 1160723" transform="translate(5.11)">
              <path id="Trazado_994702" data-name="Trazado 994702" d="M649.067,189.652a.932.932,0,0,1-.933-.933V178.5a.933.933,0,0,1,1.866,0v10.222A.932.932,0,0,1,649.067,189.652Z" transform="translate(-648.134 -177.564)" fill="#29275f"/>
            </g>
            <g id="Grupo_1160724" data-name="Grupo 1160724" transform="translate(0 5.11)">
              <path id="Trazado_994703" data-name="Trazado 994703" d="M645.593,193.126H635.371a.933.933,0,1,1,0-1.866h10.222a.933.933,0,0,1,0,1.866Z" transform="translate(-634.438 -191.26)" fill="#29275f"/>
            </g>
          </g>
          <path id="Trazado_994704" data-name="Trazado 994704" d="M641.336,116.216c-4.39,0-4.4,6.824,0,6.824S645.734,116.216,641.336,116.216Z" transform="translate(-636.696 -116.216)" fill="#29275f"/>
          <path id="Trazado_994705" data-name="Trazado 994705" d="M686.786,144.011c-7.318,0-7.329,11.372,0,11.372S694.116,144.011,686.786,144.011Z" transform="translate(-663.81 -133.64)" fill="#29275f"/>
        </g>
        <g id="Grupo_1160727" data-name="Grupo 1160727" transform="translate(-2147.789 5876.292)">
          <path id="Trazado_994706" data-name="Trazado 994706" d="M162.063,1163.28c-4.391,0-4.4,6.824,0,6.824S166.461,1163.28,162.063,1163.28Z" transform="translate(-140.763 -1124.966)" fill="#29275f"/>
          <path id="Trazado_994707" data-name="Trazado 994707" d="M116.009,1099.57c-7.318,0-7.33,11.372,0,11.372S123.339,1099.57,116.009,1099.57Z" transform="translate(-110.516 -1085.029)" fill="#29275f"/>
          <path id="Trazado_994708" data-name="Trazado 994708" d="M163.456,1060.6c-7.318,0-7.33,11.372,0,11.372S170.786,1060.6,163.456,1060.6Z" transform="translate(-140.259 -1060.6)" fill="#29275f"/>
        </g>
        <g id="Grupo_1160731" data-name="Grupo 1160731" transform="translate(-1854.184 5888.795)">
          <g id="Grupo_1160730" data-name="Grupo 1160730" transform="translate(0 22.889)">
            <g id="Grupo_1160728" data-name="Grupo 1160728" transform="translate(5.112)">
              <path id="Trazado_994709" data-name="Trazado 994709" d="M912.011,1167.541a.932.932,0,0,1-.933-.933v-10.223a.933.933,0,0,1,1.866,0v10.223A.931.931,0,0,1,912.011,1167.541Z" transform="translate(-911.078 -1155.452)" fill="#29275f"/>
            </g>
            <g id="Grupo_1160729" data-name="Grupo 1160729" transform="translate(0 5.115)">
              <path id="Trazado_994710" data-name="Trazado 994710" d="M908.533,1171.026H898.311a.933.933,0,1,1,0-1.866h10.222a.933.933,0,1,1,0,1.866Z" transform="translate(-897.378 -1169.16)" fill="#29275f"/>
            </g>
          </g>
          <path id="Trazado_994711" data-name="Trazado 994711" d="M904.277,1094.11c-4.39,0-4.4,6.824,0,6.824S908.675,1094.11,904.277,1094.11Z" transform="translate(-899.637 -1094.11)" fill="#29275f"/>
          <path id="Trazado_994712" data-name="Trazado 994712" d="M949.727,1121.91c-7.318,0-7.329,11.372,0,11.372S957.057,1121.91,949.727,1121.91Z" transform="translate(-926.751 -1111.537)" fill="#29275f"/>
        </g>
      </g>
    </g>
  </g>
</svg>
