<svg xmlns="http://www.w3.org/2000/svg" xmlns:xlink="http://www.w3.org/1999/xlink" width="108" height="108" viewBox="0 0 108 108">
  <defs>
    <filter id="Trazado_982547" x="0" y="0" width="108" height="108" filterUnits="userSpaceOnUse">
      <feOffset dy="3" input="SourceAlpha"/>
      <feGaussianBlur stdDeviation="3" result="blur"/>
      <feFlood flood-opacity="0.161"/>
      <feComposite operator="in" in2="blur"/>
      <feComposite in="SourceGraphic"/>
    </filter>
  </defs>
  <g id="Grupo_1160677" data-name="Grupo 1160677" transform="translate(-173 -6512)">
    <g id="Grupo_1159770" data-name="Grupo 1159770" transform="translate(12 5060)">
      <g id="Grupo_1153117" data-name="Grupo 1153117" transform="translate(-93 939)">
        <g id="Grupo_1149598" data-name="Grupo 1149598" transform="translate(80 315)">
          <g id="Grupo_1148770" data-name="Grupo 1148770" transform="translate(-27 -2583)">
            <g id="Grupo_1146954" data-name="Grupo 1146954" transform="translate(-415 -1202)">
              <g transform="matrix(1, 0, 0, 1, 616, 3983)" filter="url(#Trazado_982547)">
                <g id="Trazado_982547-2" data-name="Trazado 982547" transform="translate(9 6)" fill="#eff5f8">
                  <path d="M 45 88.5 C 39.12687683105469 88.5 33.43022537231445 87.35007476806641 28.06830024719238 85.08217620849609 C 22.88852500915527 82.89131164550781 18.23629951477051 79.75458526611328 14.2408504486084 75.75914764404297 C 10.24541282653809 71.76370239257812 7.108687400817871 67.11147308349609 4.917825222015381 61.93170166015625 C 2.649924993515015 56.56977462768555 1.5 50.87312316894531 1.5 45 C 1.5 39.12687683105469 2.649924993515015 33.43022537231445 4.917825222015381 28.06830024719238 C 7.108687400817871 22.88852500915527 10.24541282653809 18.23629951477051 14.2408504486084 14.2408504486084 C 18.23629951477051 10.24541282653809 22.88852500915527 7.108687400817871 28.06830024719238 4.917825222015381 C 33.43022537231445 2.649924993515015 39.12687683105469 1.5 45 1.5 C 50.87312316894531 1.5 56.56977462768555 2.649924993515015 61.93170166015625 4.917825222015381 C 67.11147308349609 7.108687400817871 71.76370239257812 10.24541282653809 75.75914764404297 14.2408504486084 C 79.75458526611328 18.23629951477051 82.89131164550781 22.88852500915527 85.08217620849609 28.06830024719238 C 87.35007476806641 33.43022537231445 88.5 39.12687683105469 88.5 45 C 88.5 50.87312316894531 87.35007476806641 56.56977462768555 85.08217620849609 61.93170166015625 C 82.89131164550781 67.11147308349609 79.75458526611328 71.76370239257812 75.75914764404297 75.75914764404297 C 71.76370239257812 79.75458526611328 67.11147308349609 82.89131164550781 61.93170166015625 85.08217620849609 C 56.56977462768555 87.35007476806641 50.87312316894531 88.5 45 88.5 Z" stroke="none"/>
                  <path d="M 45 3 C 39.32871246337891 3 33.82865524291992 4.110054016113281 28.65262985229492 6.299339294433594 C 23.65165710449219 8.414573669433594 19.15968322753906 11.44334411621094 15.301513671875 15.301513671875 C 11.44334411621094 19.15968322753906 8.414573669433594 23.65165710449219 6.299339294433594 28.65262985229492 C 4.110054016113281 33.82865524291992 3 39.32871246337891 3 45 C 3 50.67128753662109 4.110054016113281 56.17134475708008 6.299339294433594 61.34737396240234 C 8.414573669433594 66.34834289550781 11.44334411621094 70.84031677246094 15.301513671875 74.698486328125 C 19.15968322753906 78.55665588378906 23.65165710449219 81.58542633056641 28.65262985229492 83.70066070556641 C 33.82865524291992 85.88994598388672 39.32871246337891 87 45 87 C 50.67128753662109 87 56.17134475708008 85.88994598388672 61.34737396240234 83.70066070556641 C 66.34834289550781 81.58542633056641 70.84031677246094 78.55665588378906 74.698486328125 74.698486328125 C 78.55665588378906 70.84031677246094 81.58542633056641 66.34834289550781 83.70066070556641 61.34737396240234 C 85.88994598388672 56.17134475708008 87 50.67128753662109 87 45 C 87 39.32871246337891 85.88994598388672 33.82865524291992 83.70066070556641 28.65262985229492 C 81.58542633056641 23.65165710449219 78.55665588378906 19.15968322753906 74.698486328125 15.301513671875 C 70.84031677246094 11.44334411621094 66.34834289550781 8.414573669433594 61.34737396240234 6.299339294433594 C 56.17134475708008 4.110054016113281 50.67128753662109 3 45 3 M 45 0 C 69.85281372070312 0 90 20.14718627929688 90 45 C 90 69.85281372070312 69.85281372070312 90 45 90 C 20.14718627929688 90 0 69.85281372070312 0 45 C 0 20.14718627929688 20.14718627929688 0 45 0 Z" stroke="none" fill="#3b596a"/>
                </g>
              </g>
            </g>
          </g>
        </g>
      </g>
    </g>
    <g id="comunicacion-global" transform="translate(193 6530)">
      <g id="Grupo_1160632" data-name="Grupo 1160632" transform="translate(9.418 13.785)">
        <g id="Grupo_1160631" data-name="Grupo 1160631">
          <g id="Grupo_1160630" data-name="Grupo 1160630">
            <path id="Trazado_994636" data-name="Trazado 994636" d="M114.7,122.5c-1.942.017-3.771-.836-5.658-1.3s-4.143-.421-5.452,1.014c-.873.958-1.121,2.318-1.741,3.456s-2.03,2.114-3.157,1.475c-1.263-.717-.947-2.607-1.5-3.949-.7-1.7-2.811-2.417-3.709-4.025-1.184-2.118.155-4.687.5-7.089a8.757,8.757,0,0,0-5.651-9.186A25.769,25.769,0,0,0,70.3,121.142L81.331,122.4l.868,3.827a4.466,4.466,0,0,0,.617,4.02,20.38,20.38,0,0,0,3.54,3.478,6.731,6.731,0,0,1,2.51,4.161c.2,2.333-1.6,4.292-3.121,6.069s-2.97,4.194-2.005,6.327l-.375.266a25.733,25.733,0,0,0,35.888-31.922C119.021,121.712,116.639,122.481,114.7,122.5Z" transform="translate(-70.296 -102.897)" fill="#b3dafe"/>
          </g>
        </g>
      </g>
      <g id="Grupo_1160635" data-name="Grupo 1160635" transform="translate(8.574 32.031)">
        <g id="Grupo_1160634" data-name="Grupo 1160634">
          <g id="Grupo_1160633" data-name="Grupo 1160633">
            <path id="Trazado_994637" data-name="Trazado 994637" d="M80.294,261.9c1.526-1.776,3.319-3.735,3.121-6.069a6.73,6.73,0,0,0-2.51-4.161,20.38,20.38,0,0,1-3.54-3.478,4.465,4.465,0,0,1-.617-4.02l-.868-3.827-11.035-1.262a25.756,25.756,0,0,0,13.069,29.41l.375-.266C77.324,266.1,78.768,263.678,80.294,261.9Z" transform="translate(-64 -239.085)" fill="#ade194"/>
          </g>
        </g>
      </g>
      <g id="Grupo_1160638" data-name="Grupo 1160638" transform="translate(27.446 12.861)">
        <g id="Grupo_1160637" data-name="Grupo 1160637">
          <g id="Grupo_1160636" data-name="Grupo 1160636">
            <path id="Trazado_994638" data-name="Trazado 994638" d="M210.511,106.11c-.342,2.4-1.681,4.971-.5,7.089.9,1.607,3,2.323,3.709,4.025.556,1.342.239,3.232,1.5,3.949,1.127.64,2.537-.337,3.157-1.475s.868-2.5,1.741-3.456c1.309-1.435,3.565-1.475,5.452-1.014s3.716,1.314,5.658,1.3,4.323-.785,4.555-3.868A25.752,25.752,0,0,0,204.86,96.924a8.757,8.757,0,0,1,5.651,9.186Z" transform="translate(-204.86 -96)" fill="#ade194"/>
          </g>
        </g>
      </g>
      <g id="Grupo_1160641" data-name="Grupo 1160641" transform="translate(32.304 29.518)">
        <g id="Grupo_1160640" data-name="Grupo 1160640">
          <g id="Grupo_1160639" data-name="Grupo 1160639">
            <path id="Trazado_994639" data-name="Trazado 994639" d="M267.192,220.331a3.768,3.768,0,0,1-2.946,3.66,25.737,25.737,0,0,1-23.126,31.05c.658.05,1.322.079,1.993.079a25.735,25.735,0,0,0,24.078-34.789Z" transform="translate(-241.121 -220.331)" fill="#8ac9fe"/>
          </g>
        </g>
      </g>
      <g id="Grupo_1160644" data-name="Grupo 1160644" transform="translate(17.057 37.432)">
        <g id="Grupo_1160643" data-name="Grupo 1160643">
          <g id="Grupo_1160642" data-name="Grupo 1160642">
            <path id="Trazado_994640" data-name="Trazado 994640" d="M138.246,290.744a6.73,6.73,0,0,0-2.51-4.161,20.38,20.38,0,0,1-3.54-3.479,4.617,4.617,0,0,1-.726-3.707h-4.019a4.617,4.617,0,0,0,.726,3.707,20.379,20.379,0,0,0,3.54,3.479,6.731,6.731,0,0,1,2.51,4.161c.2,2.333-1.6,4.292-3.121,6.069a9.29,9.29,0,0,0-2.249,4.114,25.745,25.745,0,0,0,3.887,2.479l.375-.266c-.964-2.134.48-4.551,2.005-6.327S138.444,293.077,138.246,290.744Z" transform="translate(-127.314 -279.397)" fill="#97da7b"/>
          </g>
        </g>
      </g>
      <g id="Grupo_1160647" data-name="Grupo 1160647" transform="translate(32.307 12.861)">
        <g id="Grupo_1160646" data-name="Grupo 1160646">
          <g id="Grupo_1160645" data-name="Grupo 1160645">
            <path id="Trazado_994641" data-name="Trazado 994641" d="M243.135,96c-.67,0-1.333.029-1.99.079a25.737,25.737,0,0,1,21.512,15.265,3.6,3.6,0,0,1-2.111,4.885l-.04.013a8.736,8.736,0,0,0,2.152.283c1.942-.017,4.323-.785,4.555-3.868A25.731,25.731,0,0,0,243.135,96Z" transform="translate(-241.145 -96)" fill="#97da7b"/>
          </g>
        </g>
      </g>
      <g id="Grupo_1160650" data-name="Grupo 1160650" transform="translate(1.005 19.984)">
        <g id="Grupo_1160649" data-name="Grupo 1160649">
          <g id="Grupo_1160648" data-name="Grupo 1160648">
            <path id="Trazado_994642" data-name="Trazado 994642" d="M13.345,149.167H25.156A5.845,5.845,0,0,1,31,155.012v5.935a5.845,5.845,0,0,1-5.845,5.845h-2.3a.626.626,0,0,0-.618.713,6.24,6.24,0,0,0,.4,1.523,1.167,1.167,0,0,1-1.09,1.6h-1.4a3.833,3.833,0,0,1-3.794-3.288.627.627,0,0,0-.618-.545H13.345A5.845,5.845,0,0,1,7.5,160.947v-5.935A5.845,5.845,0,0,1,13.345,149.167Z" transform="translate(-7.5 -149.167)" fill="#fea95c"/>
          </g>
        </g>
      </g>
      <g id="Grupo_1160653" data-name="Grupo 1160653" transform="translate(9.954 20.579)">
        <g id="Grupo_1160652" data-name="Grupo 1160652">
          <g id="Grupo_1160651" data-name="Grupo 1160651">
            <path id="Trazado_994643" data-name="Trazado 994643" d="M85.578,153.608a5.82,5.82,0,0,1,.6,2.57v5.935a5.845,5.845,0,0,1-5.845,5.845H79.294a1.609,1.609,0,0,0-1.5,2.2l.016.04a1.167,1.167,0,0,1-1.09,1.6h-1.4a3.834,3.834,0,0,1-1.016-.137,3.834,3.834,0,0,0,3.7,2.816h1.4a1.167,1.167,0,0,0,1.09-1.6,6.236,6.236,0,0,1-.4-1.523.626.626,0,0,1,.618-.713h2.3a5.845,5.845,0,0,0,5.845-5.845v-5.935A5.845,5.845,0,0,0,85.578,153.608Z" transform="translate(-74.302 -153.608)" fill="#fe9738"/>
          </g>
        </g>
      </g>
      <g id="Grupo_1160656" data-name="Grupo 1160656" transform="translate(44.089 4.287)">
        <g id="Grupo_1160655" data-name="Grupo 1160655">
          <g id="Grupo_1160654" data-name="Grupo 1160654">
            <path id="Trazado_994644" data-name="Trazado 994644" d="M346.744,32H334.933a5.845,5.845,0,0,0-5.845,5.845V43.78a5.845,5.845,0,0,0,5.845,5.845h2.3a.626.626,0,0,1,.618.713,6.239,6.239,0,0,1-.4,1.523,1.167,1.167,0,0,0,1.09,1.6h1.4a3.833,3.833,0,0,0,3.794-3.288.627.627,0,0,1,.618-.545h2.388a5.845,5.845,0,0,0,5.845-5.845V37.845A5.845,5.845,0,0,0,346.744,32Z" transform="translate(-329.088 -32)" fill="#ffe177"/>
          </g>
        </g>
      </g>
      <g id="Grupo_1160659" data-name="Grupo 1160659" transform="translate(52.375 4.882)">
        <g id="Grupo_1160658" data-name="Grupo 1160658">
          <g id="Grupo_1160657" data-name="Grupo 1160657">
            <path id="Trazado_994645" data-name="Trazado 994645" d="M402.879,36.441a5.82,5.82,0,0,1,.6,2.571v5.935a5.845,5.845,0,0,1-5.845,5.845h-.081a4.042,4.042,0,0,0-3.442,1.987,3.834,3.834,0,0,1-2.756,1.81,6.236,6.236,0,0,1-.324,1.093,1.174,1.174,0,0,0,1.08,1.622h1.4a3.833,3.833,0,0,0,3.8-3.307.617.617,0,0,1,.615-.525h2.388a5.845,5.845,0,0,0,5.845-5.845V41.691a5.845,5.845,0,0,0-3.275-5.25Z" transform="translate(-390.939 -36.441)" fill="#ffd15b"/>
          </g>
        </g>
      </g>
      <g id="Grupo_1160662" data-name="Grupo 1160662" transform="translate(42.505 42.067)">
        <g id="Grupo_1160661" data-name="Grupo 1160661">
          <g id="Grupo_1160660" data-name="Grupo 1160660">
            <path id="Trazado_994646" data-name="Trazado 994646" d="M317.623,318.3a5.352,5.352,0,0,0,.111,4.114,2.178,2.178,0,0,0,1.4,1.348,2.028,2.028,0,0,0,1.753-.689c.462-.464.8-1.037,1.247-1.515a18.915,18.915,0,0,1,3.315-2.238c1.1-.76,2.077-2.025,1.779-3.329a2.913,2.913,0,0,0-2.8-1.99A7.448,7.448,0,0,0,317.623,318.3Z" transform="translate(-317.265 -313.996)" fill="#ade194"/>
          </g>
        </g>
      </g>
      <g id="Grupo_1160665" data-name="Grupo 1160665" transform="translate(34.318 51.56)">
        <g id="Grupo_1160664" data-name="Grupo 1160664">
          <g id="Grupo_1160663" data-name="Grupo 1160663">
            <path id="Trazado_994647" data-name="Trazado 994647" d="M258.224,390.958a2.281,2.281,0,0,0,1.78,0,2.431,2.431,0,0,0,.915-1.524c.36-1.23.7-2.675-.188-3.771a1.97,1.97,0,0,0-2.776-.421C255.683,386.774,255.342,390.09,258.224,390.958Z" transform="translate(-256.157 -384.852)" fill="#ade194"/>
          </g>
        </g>
      </g>
      <g id="Grupo_1160668" data-name="Grupo 1160668">
        <g id="Grupo_1160667" data-name="Grupo 1160667">
          <g id="Grupo_1160666" data-name="Grupo 1160666">
            <path id="Trazado_994648" data-name="Trazado 994648" fill="none" stroke="#000" stroke-linecap="round" stroke-linejoin="round" stroke-miterlimit="10" stroke-width="15"/>
          </g>
        </g>
      </g>
      <g id="Grupo_1160676" data-name="Grupo 1160676" transform="translate(0 3.282)">
        <g id="Grupo_1160669" data-name="Grupo 1160669" transform="translate(7.983 22.161)">
          <path id="Trazado_994649" data-name="Trazado 994649" d="M68.125,189.917H60.59a1,1,0,1,0,0,2.01h7.535a1,1,0,0,0,0-2.01Z" transform="translate(-59.585 -189.917)"/>
        </g>
        <g id="Grupo_1160670" data-name="Grupo 1160670" transform="translate(7.983 26.806)">
          <path id="Trazado_994650" data-name="Trazado 994650" d="M68.125,224.583H60.59a1,1,0,1,0,0,2.01h7.535a1,1,0,1,0,0-2.01Z" transform="translate(-59.585 -224.583)"/>
        </g>
        <g id="Grupo_1160671" data-name="Grupo 1160671">
          <path id="Trazado_994651" data-name="Trazado 994651" d="M61.745,24.5H49.934a6.858,6.858,0,0,0-6.85,6.85v3.2A26.713,26.713,0,0,0,16.2,40.135c-.022.02-.042.041-.061.062H12.861a1,1,0,0,0,0,2.01h5.8a4.846,4.846,0,0,1,4.84,4.84v5.935a4.846,4.846,0,0,1-4.84,4.84h-2.3a1.631,1.631,0,0,0-1.614,1.848,7.29,7.29,0,0,0,.467,1.771.136.136,0,0,1-.016.137.166.166,0,0,1-.143.077h-1.4a2.839,2.839,0,0,1-2.8-2.424,1.641,1.641,0,0,0-1.613-1.408H6.85a4.845,4.845,0,0,1-4.84-4.84V47.047a4.846,4.846,0,0,1,4.84-4.84H8.574a1,1,0,0,0,0-2.01H6.85A6.858,6.858,0,0,0,0,47.047v5.935a6.858,6.858,0,0,0,6.85,6.85h.72A26.728,26.728,0,0,0,52.152,79.691,1,1,0,1,0,50.809,78.2a24.731,24.731,0,0,1-26.96,4.011,1.01,1.01,0,0,0-.071-.228c-.759-1.681.588-3.787,1.852-5.259l.208-.241c1.583-1.837,3.377-3.919,3.153-6.567a7.523,7.523,0,0,0-2.836-4.82c-.322-.293-.655-.576-.977-.851a12.566,12.566,0,0,1-2.4-2.442,3.572,3.572,0,0,1-.569-2.958,6.853,6.853,0,0,0,3.3-5.859V47.047a6.857,6.857,0,0,0-6.3-6.825,24.777,24.777,0,0,1,8.193-4.16A7.8,7.8,0,0,1,32.1,44.047a18.921,18.921,0,0,1-.431,1.965c-.465,1.823-.992,3.889.051,5.756a7.791,7.791,0,0,0,2.034,2.155,5.123,5.123,0,0,1,1.624,1.764,6.241,6.241,0,0,1,.306,1.322,3.9,3.9,0,0,0,1.629,3.116,2.541,2.541,0,0,0,1.266.335,2.877,2.877,0,0,0,.79-.114,4.351,4.351,0,0,0,2.48-2.089,12.657,12.657,0,0,0,.638-1.433A5.938,5.938,0,0,1,43.452,55c1.251-1.371,3.739-.894,4.472-.715.558.136,1.11.308,1.694.491a13.775,13.775,0,0,0,4.211.835,5.575,5.575,0,0,0,4.443-1.844,24.764,24.764,0,0,1-4.8,21.633,1,1,0,1,0,1.558,1.269,26.757,26.757,0,0,0,4.282-26.285h0a26.668,26.668,0,0,0-1.533-3.342,4.841,4.841,0,0,0,1.895-2.9h2.068a6.858,6.858,0,0,0,6.85-6.85V31.35a6.857,6.857,0,0,0-6.85-6.85ZM21.1,62.915a14.263,14.263,0,0,0,2.77,2.856c.324.276.63.537.93.809a5.685,5.685,0,0,1,2.184,3.5c.153,1.807-1.283,3.474-2.673,5.085l-.21.243c-1.27,1.478-2.579,3.507-2.558,5.572A24.631,24.631,0,0,1,9.64,61.526a4.86,4.86,0,0,0,4.01,2.139h1.4a2.179,2.179,0,0,0,1.809-.964,2.154,2.154,0,0,0,.212-2.015,5.247,5.247,0,0,1-.263-.854h1.85a6.855,6.855,0,0,0,1.409-.146A5.956,5.956,0,0,0,21.1,62.915Zm36.249-12.04c-.216,1.789-1.406,2.706-3.541,2.724a12.122,12.122,0,0,1-3.595-.744c-.588-.183-1.2-.373-1.816-.525-2.721-.664-5.066-.186-6.433,1.313a7.514,7.514,0,0,0-1.348,2.442,11.031,11.031,0,0,1-.533,1.21,2.386,2.386,0,0,1-1.267,1.118.618.618,0,0,1-.513-.036c-.373-.212-.489-.78-.637-1.69a7.8,7.8,0,0,0-.433-1.77,6.761,6.761,0,0,0-2.214-2.554,6.116,6.116,0,0,1-1.546-1.576c-.652-1.167-.266-2.678.142-4.278a20.69,20.69,0,0,0,.473-2.179,9.754,9.754,0,0,0-3.8-8.922,24.877,24.877,0,0,1,4.009-.325,24.59,24.59,0,0,1,8.787,1.608v.593a6.858,6.858,0,0,0,6.85,6.85h1.85a5.254,5.254,0,0,1-.263.854A2.154,2.154,0,0,0,51.733,47a2.179,2.179,0,0,0,1.809.964h1.4a4.784,4.784,0,0,0,1-.106,24.67,24.67,0,0,1,1.41,3.013Zm9.233-13.589a4.846,4.846,0,0,1-4.84,4.84H59.356a1.641,1.641,0,0,0-1.613,1.408,2.839,2.839,0,0,1-2.8,2.425h-1.4a.166.166,0,0,1-.143-.076.137.137,0,0,1-.016-.137,7.292,7.292,0,0,0,.467-1.771,1.631,1.631,0,0,0-1.614-1.847h-2.3a4.846,4.846,0,0,1-4.84-4.84V31.35a4.846,4.846,0,0,1,4.84-4.84H61.745a4.846,4.846,0,0,1,4.84,4.84Z" transform="translate(0 -24.5)"/>
        </g>
        <g id="Grupo_1160672" data-name="Grupo 1160672" transform="translate(51.067 6.464)">
          <path id="Trazado_994652" data-name="Trazado 994652" d="M389.712,72.75h-7.535a1,1,0,0,0,0,2.01h7.535a1,1,0,1,0,0-2.01Z" transform="translate(-381.172 -72.75)"/>
        </g>
        <g id="Grupo_1160673" data-name="Grupo 1160673" transform="translate(51.067 11.109)">
          <path id="Trazado_994653" data-name="Trazado 994653" d="M389.712,107.416h-7.535a1,1,0,0,0,0,2.01h7.535a1,1,0,1,0,0-2.01Z" transform="translate(-381.172 -107.416)"/>
        </g>
        <g id="Grupo_1160674" data-name="Grupo 1160674" transform="translate(41.498 37.779)">
          <path id="Trazado_994654" data-name="Trazado 994654" d="M321.693,309.268a3.924,3.924,0,0,0-3.739-2.77,8.382,8.382,0,0,0-7.779,4.936h0a6.326,6.326,0,0,0,.132,4.9,3.106,3.106,0,0,0,2.112,1.916,2.386,2.386,0,0,0,.475.047,3.144,3.144,0,0,0,2.19-1.011,8.559,8.559,0,0,0,.756-.9,5.637,5.637,0,0,1,2.394-1.953c.419-.24.853-.488,1.271-.778C320.836,312.728,322.111,311.1,321.693,309.268Zm-3.33,2.726c-.349.241-.728.458-1.128.687a7.519,7.519,0,0,0-3,2.483,6.9,6.9,0,0,1-.578.7,1.121,1.121,0,0,1-.842.413c-.223-.045-.485-.344-.682-.779a4.364,4.364,0,0,1-.09-3.332h0a6.452,6.452,0,0,1,5.828-3.66,1.961,1.961,0,0,1,1.859,1.21c.181.795-.558,1.717-1.371,2.278Z" transform="translate(-309.746 -306.492)"/>
        </g>
        <g id="Grupo_1160675" data-name="Grupo 1160675" transform="translate(33.314 47.268)">
          <path id="Trazado_994655" data-name="Trazado 994655" d="M250.9,377.882a4.812,4.812,0,0,0-2.2,4.536,3.663,3.663,0,0,0,2.74,2.974h0a4.646,4.646,0,0,0,1.326.229,2.445,2.445,0,0,0,1.247-.319,3.374,3.374,0,0,0,1.376-2.112c.317-1.083.906-3.1-.37-4.683a2.959,2.959,0,0,0-4.119-.624Zm2.56,4.743c-.077.263-.237.811-.454.936a1.517,1.517,0,0,1-.988-.094,1.688,1.688,0,0,1-1.332-1.35,2.82,2.82,0,0,1,1.335-2.568.976.976,0,0,1,1.432.218c.514.638.383,1.567.006,2.858Z" transform="translate(-248.66 -377.315)"/>
        </g>
      </g>
    </g>
  </g>
</svg>
