<svg xmlns="http://www.w3.org/2000/svg" xmlns:xlink="http://www.w3.org/1999/xlink" width="113" height="113" viewBox="0 0 113 113">
  <defs>
    <filter id="Trazado_982547" x="0" y="0" width="113" height="113" filterUnits="userSpaceOnUse">
      <feOffset dy="3" input="SourceAlpha"/>
      <feGaussianBlur stdDeviation="3" result="blur"/>
      <feFlood flood-opacity="0.161"/>
      <feComposite operator="in" in2="blur"/>
      <feComposite in="SourceGraphic"/>
    </filter>
  </defs>
  <g id="Grupo_1160606" data-name="Grupo 1160606" transform="translate(-325 -5712)">
    <g id="Grupo_1159745" data-name="Grupo 1159745" transform="translate(0 1505)">
      <g id="Grupo_1158168" data-name="Grupo 1158168" transform="translate(-1 -1314)">
        <g id="Grupo_1152576" data-name="Grupo 1152576" transform="translate(-0.454 1205.621)">
          <g id="Grupo_1148633" data-name="Grupo 1148633" transform="translate(71.408 600.047)">
            <g id="Grupo_1148525" data-name="Grupo 1148525" transform="translate(264.046 3721.333)">
              <g transform="matrix(1, 0, 0, 1, -9, -6)" filter="url(#Trazado_982547)">
                <g id="Trazado_982547-2" data-name="Trazado 982547" transform="translate(9 6)" fill="#fef2ec">
                  <path d="M 47.5 93.5 C 41.28937149047852 93.5 35.26533508300781 92.28397369384766 29.59518623352051 89.88570404052734 C 24.11771965026855 87.56893157958984 19.19813346862793 84.25196075439453 14.97309303283691 80.02691650390625 C 10.74804019927979 75.80186462402344 7.431066513061523 70.88229370117188 5.114293098449707 65.40481567382812 C 2.716026782989502 59.73468017578125 1.5 53.71062850952148 1.5 47.5 C 1.5 41.28937149047852 2.716026782989502 35.26533508300781 5.114293098449707 29.59518623352051 C 7.431066513061523 24.11771965026855 10.74804019927979 19.19813346862793 14.97309303283691 14.97309303283691 C 19.19813346862793 10.74804019927979 24.11771965026855 7.431066513061523 29.59518623352051 5.114293098449707 C 35.26533508300781 2.716026782989502 41.28937149047852 1.5 47.5 1.5 C 53.71062850952148 1.5 59.73468017578125 2.716026782989502 65.40481567382812 5.114293098449707 C 70.88229370117188 7.431066513061523 75.80186462402344 10.74804019927979 80.02691650390625 14.97309303283691 C 84.25196075439453 19.19813346862793 87.56893157958984 24.11771965026855 89.88570404052734 29.59518623352051 C 92.28397369384766 35.26533508300781 93.5 41.28937149047852 93.5 47.5 C 93.5 53.71062850952148 92.28397369384766 59.73468017578125 89.88570404052734 65.40481567382812 C 87.56893157958984 70.88229370117188 84.25196075439453 75.80186462402344 80.02691650390625 80.02691650390625 C 75.80186462402344 84.25196075439453 70.88229370117188 87.56893157958984 65.40481567382812 89.88570404052734 C 59.73468017578125 92.28397369384766 53.71062850952148 93.5 47.5 93.5 Z" stroke="none"/>
                  <path d="M 47.5 3 C 41.49121475219727 3 35.66376876831055 4.176155090332031 30.17950439453125 6.495796203613281 C 24.88084411621094 8.736953735351562 20.12152099609375 11.94598388671875 16.03375244140625 16.03375244140625 C 11.94598388671875 20.12152099609375 8.736953735351562 24.88084411621094 6.495796203613281 30.17950439453125 C 4.176155090332031 35.66376876831055 3 41.49121475219727 3 47.5 C 3 53.50878524780273 4.176155090332031 59.33623123168945 6.495796203613281 64.82049560546875 C 8.736953735351562 70.11915588378906 11.94598388671875 74.87847900390625 16.03375244140625 78.96624755859375 C 20.12152099609375 83.05401611328125 24.88084411621094 86.26304626464844 30.17950439453125 88.50419616699219 C 35.66376876831055 90.82384490966797 41.49121475219727 92 47.5 92 C 53.50878524780273 92 59.33623123168945 90.82384490966797 64.82049560546875 88.50419616699219 C 70.11915588378906 86.26304626464844 74.87847900390625 83.05401611328125 78.96624755859375 78.96624755859375 C 83.05401611328125 74.87847900390625 86.26304626464844 70.11915588378906 88.50419616699219 64.82049560546875 C 90.82384490966797 59.33623123168945 92 53.50878524780273 92 47.5 C 92 41.49121475219727 90.82384490966797 35.66376876831055 88.50419616699219 30.17950439453125 C 86.26304626464844 24.88084411621094 83.05401611328125 20.12152099609375 78.96624755859375 16.03375244140625 C 74.87847900390625 11.94598388671875 70.11915588378906 8.736953735351562 64.82049560546875 6.495796203613281 C 59.33623123168945 4.176155090332031 53.50878524780273 3 47.5 3 M 47.5 0 C 73.7335205078125 0 95 21.2664794921875 95 47.5 C 95 73.7335205078125 73.7335205078125 95 47.5 95 C 21.2664794921875 95 0 73.7335205078125 0 47.5 C 0 21.2664794921875 21.2664794921875 0 47.5 0 Z" stroke="none" fill="#fe8953"/>
                </g>
              </g>
            </g>
          </g>
        </g>
      </g>
    </g>
    <g id="cliente" transform="translate(351 5735)">
      <g id="Grupo_1160604" data-name="Grupo 1160604" transform="translate(0.894 0.894)">
        <path id="Trazado_994565" data-name="Trazado 994565" d="M153.554,199.651a1.378,1.378,0,0,1-1.378-1.378V182.247a11.211,11.211,0,0,0-22.423,0v16.026a1.378,1.378,0,0,1-1.378,1.378,2.966,2.966,0,0,0-2.978,2.97,2.913,2.913,0,0,0,2.913,2.857h25.31a2.913,2.913,0,0,0,2.912-2.99A3,3,0,0,0,153.554,199.651Z" transform="translate(-111.343 -151.542)" fill="#6c5e69"/>
        <path id="Trazado_994566" data-name="Trazado 994566" d="M175.508,421.98a.437.437,0,0,1-.437.437H150.749a.437.437,0,0,1-.437-.437V421.4a10.094,10.094,0,0,1,9.548-10.079q.271-.014.545-.014h5.009q.206,0,.411.008a10.094,10.094,0,0,1,9.683,10.086Z" transform="translate(-133.288 -363.173)" fill="#64caff"/>
        <path id="Trazado_994567" data-name="Trazado 994567" d="M259.652,411.315q-.2-.008-.411-.008h-2.4q.206,0,.411.008A10.094,10.094,0,0,1,266.93,421.4v1.015H268.9a.437.437,0,0,0,.437-.437V421.4a10.094,10.094,0,0,0-9.683-10.086Z" transform="translate(-227.115 -363.172)" fill="#00b8ff"/>
        <path id="Trazado_994568" data-name="Trazado 994568" d="M236.218,365.953a2.677,2.677,0,0,1-2.677-2.677v-7.455H238.9v7.455A2.677,2.677,0,0,1,236.218,365.953Z" transform="translate(-206.596 -314.3)" fill="#ffb29f"/>
        <path id="Trazado_994569" data-name="Trazado 994569" d="M201.3,240.163l-1.836-2.635a.254.254,0,0,0-.417,0l-1.836,2.635a.254.254,0,0,1-.209.109h-6.659a.254.254,0,0,0-.254.254v7.26a7.856,7.856,0,0,0,15.712,0v-7.26a.254.254,0,0,0-.254-.254h-4.038A.254.254,0,0,1,201.3,240.163Z" transform="translate(-168.327 -210.012)" fill="#ffe0cf"/>
        <g id="Grupo_1160599" data-name="Grupo 1160599" transform="translate(28.39 30.26)">
          <path id="Trazado_994570" data-name="Trazado 994570" d="M254.5,261.351h-2.463a.254.254,0,0,1,.254.254v7.26a7.857,7.857,0,0,1-6.625,7.759,7.858,7.858,0,0,0,9.087-7.759v-7.26A.254.254,0,0,0,254.5,261.351Z" transform="translate(-245.669 -261.351)" fill="#ffcfc0"/>
        </g>
        <path id="Trazado_994571" data-name="Trazado 994571" d="M63.036,7.5H11.207A3.707,3.707,0,0,0,7.5,11.207V21.293A3.707,3.707,0,0,0,11.207,25H33.527a.847.847,0,0,1,.734.424l2.128,3.686a.847.847,0,0,0,1.467,0l2.128-3.686A.847.847,0,0,1,40.717,25H63.036a3.707,3.707,0,0,0,3.707-3.707V11.207A3.707,3.707,0,0,0,63.036,7.5Z" transform="translate(-7.5 -7.5)" fill="#5ddfb6"/>
        <g id="Grupo_1160600" data-name="Grupo 1160600" transform="translate(52.953)">
          <path id="Trazado_994572" data-name="Trazado 994572" d="M454.311,7.5h-2.583a3.707,3.707,0,0,1,3.707,3.707V21.293A3.707,3.707,0,0,1,451.728,25h2.583a3.707,3.707,0,0,0,3.707-3.707V11.207A3.707,3.707,0,0,0,454.311,7.5Z" transform="translate(-451.728 -7.5)" fill="#00d6a0"/>
        </g>
        <g id="Grupo_1160603" data-name="Grupo 1160603" transform="translate(3.698 3.224)">
          <g id="Grupo_1160601" data-name="Grupo 1160601" transform="translate(13.411 0)">
            <circle id="Elipse_11691" data-name="Elipse 11691" cx="5.526" cy="5.526" r="5.526" fill="#ffe270"/>
          </g>
          <g id="Grupo_1160602" data-name="Grupo 1160602" transform="translate(0 4.133)">
            <path id="Trazado_994573" data-name="Trazado 994573" d="M46.273,75.5H40.385l-1.866-6.279h9.619Z" transform="translate(-38.519 -69.224)" fill="#ffc25e"/>
          </g>
          <path id="Trazado_994574" data-name="Trazado 994574" d="M394.918,48.488,391.5,45.073a.731.731,0,0,1,0-1.034l4.92-4.92a.731.731,0,0,1,.713-.188l2.673.742a.731.731,0,0,1,.509.509l.742,2.673a.731.731,0,0,1-.187.713l-4.92,4.92A.731.731,0,0,1,394.918,48.488Z" transform="translate(-349.238 -38.386)" fill="#ff94be"/>
        </g>
      </g>
      <g id="Grupo_1160605" data-name="Grupo 1160605" transform="translate(0)">
        <path id="Trazado_994575" data-name="Trazado 994575" d="M224.857,290.564V289.54a.894.894,0,1,0-1.788,0v1.024a.894.894,0,0,0,1.788,0Z" transform="translate(-196.479 -254.239)"/>
        <path id="Trazado_994576" data-name="Trazado 994576" d="M274.826,291.458a.894.894,0,0,0,.894-.894V289.54a.894.894,0,1,0-1.788,0v1.024A.894.894,0,0,0,274.826,291.458Z" transform="translate(-241.279 -254.239)"/>
        <path id="Trazado_994577" data-name="Trazado 994577" d="M233.411,331.963a.894.894,0,1,0-1.044-1.451,3.178,3.178,0,0,1-4.122,0,.894.894,0,1,0-1.044,1.451,4.946,4.946,0,0,0,6.211,0Z" transform="translate(-199.79 -290.966)"/>
        <path id="Trazado_994578" data-name="Trazado 994578" d="M295.523,46.323a.893.893,0,0,0,1.17-.478l3.68-8.768a.894.894,0,1,0-1.649-.692l-3.68,8.768A.894.894,0,0,0,295.523,46.323Z" transform="translate(-259.813 -31.564)"/>
        <path id="Trazado_994579" data-name="Trazado 994579" d="M274.466,35.192a2.532,2.532,0,1,0-2.52,2.783,2.665,2.665,0,0,0,2.52-2.783Zm-2.52,1c-.4,0-.732-.456-.732-1s.335-1,.732-1,.732.456.732,1S272.343,36.188,271.946,36.188Z" transform="translate(-237.31 -28.546)"/>
        <path id="Trazado_994580" data-name="Trazado 994580" d="M324.638,88.266a2.8,2.8,0,1,0-2.52-2.783A2.665,2.665,0,0,0,324.638,88.266Zm0-3.779c.4,0,.732.456.732,1s-.335,1-.732,1-.732-.456-.732-1S324.241,84.487,324.638,84.487Z" transform="translate(-283.721 -72.841)"/>
        <path id="Trazado_994581" data-name="Trazado 994581" d="M143.528,33.469a6.42,6.42,0,1,0,6.42-6.42A6.427,6.427,0,0,0,143.528,33.469Zm11.051,0a4.632,4.632,0,1,1-4.632-4.632A4.637,4.637,0,0,1,154.579,33.469Z" transform="translate(-126.419 -23.825)"/>
        <path id="Trazado_994582" data-name="Trazado 994582" d="M180.827,46.661a.894.894,0,0,0-.894.866,1.984,1.984,0,0,0-1.13,1.457,1.8,1.8,0,0,0,.611,1.768,5.964,5.964,0,0,0,1.659.805.284.284,0,0,1,.227.348.479.479,0,0,1-.479.407,1.07,1.07,0,0,1-.815-.207.894.894,0,0,0-.979,1.5,2.855,2.855,0,0,0,.911.42.894.894,0,0,0,1.784-.091v-.016a2.272,2.272,0,0,0,1.343-1.713,2.057,2.057,0,0,0-1.394-2.33,5.224,5.224,0,0,1-1.113-.5.223.223,0,0,1,.119-.22,2.551,2.551,0,0,1,1.219-.02.894.894,0,0,0,.472-1.724,3.931,3.931,0,0,0-.684-.114A.894.894,0,0,0,180.827,46.661Z" transform="translate(-157.33 -41.099)"/>
        <path id="Trazado_994583" data-name="Trazado 994583" d="M37.277,32.409h-1.11A2.672,2.672,0,0,0,33.5,35.078V35.9H31.913a.894.894,0,0,0-.857,1.149l1.866,6.279a.894.894,0,0,0,.857.639h5.888a.894.894,0,0,0,.857-.639l1.866-6.279a.894.894,0,0,0-.857-1.149H39.945v-.826A2.671,2.671,0,0,0,37.277,32.409Zm-1.99,2.669a.882.882,0,0,1,.881-.881h1.11a.882.882,0,0,1,.881.881V35.9H35.287ZM39,42.183H34.446l-1.335-4.491h7.223Z" transform="translate(-27.321 -28.546)"/>
        <path id="Trazado_994584" data-name="Trazado 994584" d="M384.271,39.1l3.415,3.415h0a1.628,1.628,0,0,0,2.3,0l4.92-4.92a1.628,1.628,0,0,0,.417-1.584l-.742-2.673a1.633,1.633,0,0,0-1.131-1.131l-2.673-.743a1.628,1.628,0,0,0-1.584.417l-4.92,4.92A1.627,1.627,0,0,0,384.271,39.1Zm6.117-5.887,2.492.692.692,2.492-4.738,4.738-3.185-3.185Z" transform="translate(-338.047 -27.663)"/>
        <path id="Trazado_994585" data-name="Trazado 994585" d="M56.43,0H48.371a.894.894,0,0,0,0,1.788H56.43A2.817,2.817,0,0,1,59.243,4.6V14.687A2.817,2.817,0,0,1,56.43,17.5H34.111a1.746,1.746,0,0,0-1.508.871l-2.087,3.615L28.428,18.37a1.746,1.746,0,0,0-1.508-.87H4.6a2.816,2.816,0,0,1-2.813-2.813V4.6A2.817,2.817,0,0,1,4.6,1.788H44.914a.894.894,0,0,0,0-1.788H4.6A4.607,4.607,0,0,0,0,4.6V14.687a4.607,4.607,0,0,0,4.6,4.6H26.894l.373.646a12.054,12.054,0,0,0-7.413,5.929.894.894,0,1,0,1.574.848A10.273,10.273,0,0,1,28.2,21.544l.812,1.407a1.741,1.741,0,0,0,3.016,0l.812-1.407a10.307,10.307,0,0,1,8,10.056V47.625A2.275,2.275,0,0,0,43.1,49.9a2.092,2.092,0,0,1,2.084,1.965,2.019,2.019,0,0,1-2.019,2.073h-.46a11.017,11.017,0,0,0-8.624-5.75v-1.53a8.763,8.763,0,0,0,5.179-7.988V31.154a.894.894,0,0,0-.894-.894H34.414L32.56,27.6a.894.894,0,0,0-1.467,0l-1.854,2.66H22.66a.894.894,0,0,0-.894.894v7.515a8.763,8.763,0,0,0,5.179,7.988v1.53a10.975,10.975,0,0,0-8.623,5.75h-.461a2.029,2.029,0,0,1-2.019-1.98,1.968,1.968,0,0,1,.577-1.422,2.126,2.126,0,0,1,1.507-.637A2.275,2.275,0,0,0,20.2,47.625V31.6a10.415,10.415,0,0,1,.15-1.761.894.894,0,1,0-1.762-.3A12.219,12.219,0,0,0,18.41,31.6V47.625a.485.485,0,0,1-.484.484,3.925,3.925,0,0,0-2.783,1.172,3.743,3.743,0,0,0-1.089,2.708,3.828,3.828,0,0,0,3.509,3.722,10.986,10.986,0,0,0-.54,3.411v1.015a.894.894,0,0,0,.894.894h14.4a.894.894,0,1,0,0-1.788H18.812v-.121a9.2,9.2,0,0,1,8.135-9.139,3.571,3.571,0,0,0,7.139,0,9.17,9.17,0,0,1,8.135,9.139v.121H35.777a.894.894,0,0,0,0,1.788h7.337a.894.894,0,0,0,.894-.894V59.122a11,11,0,0,0-.539-3.41,3.808,3.808,0,0,0,3.507-3.9A3.865,3.865,0,0,0,43.1,48.109a.485.485,0,0,1-.484-.484V31.6a12.1,12.1,0,0,0-8.856-11.665l.373-.646H56.43a4.607,4.607,0,0,0,4.6-4.6V4.6A4.606,4.606,0,0,0,56.43,0ZM23.554,38.668V32.048h6.152a.894.894,0,0,0,.733-.383l1.387-1.991,1.387,1.991a.894.894,0,0,0,.733.383h3.531v6.621a6.962,6.962,0,0,1-13.924,0Zm6.962,12.984a1.785,1.785,0,0,1-1.783-1.783V47.236a8.8,8.8,0,0,0,3.566,0V49.87a1.785,1.785,0,0,1-1.783,1.783Z" transform="translate(0)"/>
      </g>
    </g>
  </g>
</svg>
