<svg xmlns="http://www.w3.org/2000/svg" xmlns:xlink="http://www.w3.org/1999/xlink" width="108" height="108" viewBox="0 0 108 108">
  <defs>
    <filter id="Trazado_982547" x="0" y="0" width="108" height="108" filterUnits="userSpaceOnUse">
      <feOffset dy="3" input="SourceAlpha"/>
      <feGaussianBlur stdDeviation="3" result="blur"/>
      <feFlood flood-opacity="0.161"/>
      <feComposite operator="in" in2="blur"/>
      <feComposite in="SourceGraphic"/>
    </filter>
  </defs>
  <g id="Grupo_1160874" data-name="Grupo 1160874" transform="translate(-196 -3218)">
    <g id="Grupo_1158406" data-name="Grupo 1158406" transform="translate(0 2897)">
      <g id="Grupo_1155782" data-name="Grupo 1155782" transform="translate(-420 -4906)">
        <g id="Grupo_1154033" data-name="Grupo 1154033" transform="translate(0 1317)">
          <g id="Grupo_1153177" data-name="Grupo 1153177" transform="translate(362 3397)">
            <g id="Grupo_1149598" data-name="Grupo 1149598" transform="translate(80 315)">
              <g id="Grupo_1148770" data-name="Grupo 1148770" transform="translate(-27 -2583)">
                <g id="Grupo_1146954" data-name="Grupo 1146954" transform="translate(-415 -1202)">
                  <g transform="matrix(1, 0, 0, 1, 616, 3983)" filter="url(#Trazado_982547)">
                    <g id="Trazado_982547-2" data-name="Trazado 982547" transform="translate(9 6)" fill="#fef2ec">
                      <path d="M 45 88.5 C 39.12687683105469 88.5 33.43022537231445 87.35007476806641 28.06830024719238 85.08217620849609 C 22.88852500915527 82.89131164550781 18.23629951477051 79.75458526611328 14.2408504486084 75.75914764404297 C 10.24541282653809 71.76370239257812 7.108687400817871 67.11147308349609 4.917825222015381 61.93170166015625 C 2.649924993515015 56.56977462768555 1.5 50.87312316894531 1.5 45 C 1.5 39.12687683105469 2.649924993515015 33.43022537231445 4.917825222015381 28.06830024719238 C 7.108687400817871 22.88852500915527 10.24541282653809 18.23629951477051 14.2408504486084 14.2408504486084 C 18.23629951477051 10.24541282653809 22.88852500915527 7.108687400817871 28.06830024719238 4.917825222015381 C 33.43022537231445 2.649924993515015 39.12687683105469 1.5 45 1.5 C 50.87312316894531 1.5 56.56977462768555 2.649924993515015 61.93170166015625 4.917825222015381 C 67.11147308349609 7.108687400817871 71.76370239257812 10.24541282653809 75.75914764404297 14.2408504486084 C 79.75458526611328 18.23629951477051 82.89131164550781 22.88852500915527 85.08217620849609 28.06830024719238 C 87.35007476806641 33.43022537231445 88.5 39.12687683105469 88.5 45 C 88.5 50.87312316894531 87.35007476806641 56.56977462768555 85.08217620849609 61.93170166015625 C 82.89131164550781 67.11147308349609 79.75458526611328 71.76370239257812 75.75914764404297 75.75914764404297 C 71.76370239257812 79.75458526611328 67.11147308349609 82.89131164550781 61.93170166015625 85.08217620849609 C 56.56977462768555 87.35007476806641 50.87312316894531 88.5 45 88.5 Z" stroke="none"/>
                      <path d="M 45 3 C 39.32871246337891 3 33.82865524291992 4.110054016113281 28.65262985229492 6.299339294433594 C 23.65165710449219 8.414573669433594 19.15968322753906 11.44334411621094 15.301513671875 15.301513671875 C 11.44334411621094 19.15968322753906 8.414573669433594 23.65165710449219 6.299339294433594 28.65262985229492 C 4.110054016113281 33.82865524291992 3 39.32871246337891 3 45 C 3 50.67128753662109 4.110054016113281 56.17134475708008 6.299339294433594 61.34737396240234 C 8.414573669433594 66.34834289550781 11.44334411621094 70.84031677246094 15.301513671875 74.698486328125 C 19.15968322753906 78.55665588378906 23.65165710449219 81.58542633056641 28.65262985229492 83.70066070556641 C 33.82865524291992 85.88994598388672 39.32871246337891 87 45 87 C 50.67128753662109 87 56.17134475708008 85.88994598388672 61.34737396240234 83.70066070556641 C 66.34834289550781 81.58542633056641 70.84031677246094 78.55665588378906 74.698486328125 74.698486328125 C 78.55665588378906 70.84031677246094 81.58542633056641 66.34834289550781 83.70066070556641 61.34737396240234 C 85.88994598388672 56.17134475708008 87 50.67128753662109 87 45 C 87 39.32871246337891 85.88994598388672 33.82865524291992 83.70066070556641 28.65262985229492 C 81.58542633056641 23.65165710449219 78.55665588378906 19.15968322753906 74.698486328125 15.301513671875 C 70.84031677246094 11.44334411621094 66.34834289550781 8.414573669433594 61.34737396240234 6.299339294433594 C 56.17134475708008 4.110054016113281 50.67128753662109 3 45 3 M 45 0 C 69.85281372070312 0 90 20.14718627929688 90 45 C 90 69.85281372070312 69.85281372070312 90 45 90 C 20.14718627929688 90 0 69.85281372070312 0 45 C 0 20.14718627929688 20.14718627929688 0 45 0 Z" stroke="none" fill="#8a4a2d"/>
                    </g>
                  </g>
                </g>
              </g>
            </g>
          </g>
        </g>
      </g>
    </g>
    <g id="medios-de-comunicacion-social" transform="translate(205.269 3238)">
      <path id="Trazado_994714" data-name="Trazado 994714" d="M219.592,39.242a5.9,5.9,0,0,0,3.467,1.119h11.08v5.372l7.023-5.372h3.03a5.905,5.905,0,0,0,5.914-5.9V13.4a5.905,5.905,0,0,0-5.914-5.9H223.059a5.905,5.905,0,0,0-5.914,5.9V39.242Z" transform="translate(-176.966 -6.59)" fill="#f7f3f1"/>
      <path id="Trazado_994715" data-name="Trazado 994715" d="M367.2,7.5h-5.066a5.905,5.905,0,0,1,5.914,5.9V34.465a5.905,5.905,0,0,1-5.914,5.9h-3.03l-1.958,1.5v3.875l7.023-5.372h3.03a5.905,5.905,0,0,0,5.914-5.9V13.4A5.905,5.905,0,0,0,367.2,7.5Z" transform="translate(-299.975 -6.59)" fill="#ebe1dc"/>
      <path id="Trazado_994716" data-name="Trazado 994716" d="M306.226,79.982l.61.493a5.429,5.429,0,0,0,3.416,1.209H318.9a1.444,1.444,0,0,0,1.442-1.513c-.037-.776,0-7.847,0-8.644a1.444,1.444,0,0,0-1.443-1.443l-5.868-.018.718-1.7a6.157,6.157,0,0,0-.326-5.45.961.961,0,0,0-1.794.477,6.263,6.263,0,0,1-1.567,4.143l-3.742,4.234h-1.364v8.213h1.264Z" transform="translate(-254.123 -54.853)" fill="#ffd36c"/>
      <path id="Trazado_994717" data-name="Trazado 994717" d="M278.543,138h-3.951a.473.473,0,0,1-.473-.473V127.457a.473.473,0,0,1,.473-.473h3.951a.473.473,0,0,1,.473.473v10.072A.473.473,0,0,1,278.543,138Z" transform="translate(-227.024 -111.57)" fill="#8ee6f3"/>
      <path id="Trazado_994718" data-name="Trazado 994718" d="M49.223,168.414V147.15a4.657,4.657,0,0,0-4.664-4.65H27.894a4.657,4.657,0,0,0-4.664,4.65v16.615a4.657,4.657,0,0,0,4.664,4.65h9.155v4.276l5.539-4.276Z" transform="translate(-6.589 -125.203)" fill="#4ed5ea"/>
      <path id="Trazado_994719" data-name="Trazado 994719" d="M151.145,142.5h-6.6a4.657,4.657,0,0,1,4.664,4.65v21.264h6.6V147.15A4.657,4.657,0,0,0,151.145,142.5Z" transform="translate(-113.175 -125.203)" fill="#62a6fd"/>
      <path id="Trazado_994720" data-name="Trazado 994720" d="M202.134,328H190.308a3.3,3.3,0,0,0-3.31,3.3v11.79a3.3,3.3,0,0,0,3.31,3.3h6.5v3.035l3.931-3.035h1.4a3.3,3.3,0,0,0,3.31-3.3V331.3A3.3,3.3,0,0,0,202.134,328Z" transform="translate(-150.478 -288.185)" fill="#fa9084"/>
      <path id="Trazado_994721" data-name="Trazado 994721" d="M273.12,328h-5.1a3.3,3.3,0,0,1,3.31,3.3v11.791a3.3,3.3,0,0,1-3.31,3.3h-.231v3.035l3.931-3.035h1.4a3.3,3.3,0,0,0,3.31-3.3V331.3A3.3,3.3,0,0,0,273.12,328Z" transform="translate(-221.463 -288.185)" fill="#ff6cb5"/>
      <path id="Trazado_994722" data-name="Trazado 994722" d="M231.707,383.344c2.846-1.509,4.32-2.792,4.32-4.781,0-2.743-3.36-3.429-4.32-1.371-1.1-2.126-4.32-1.371-4.32,1.371C227.387,380.551,228.861,381.835,231.707,383.344Z" transform="translate(-185.965 -330.329)" fill="#f7f3f1"/>
      <path id="Trazado_994723" data-name="Trazado 994723" d="M67.227,0H64.555a.911.911,0,0,0,0,1.821h2.672a5,5,0,0,1,5,4.986V27.875a5,5,0,0,1-5,4.986H64.2a.91.91,0,0,0-.553.187L58.084,37.3v-3.53a.91.91,0,0,0-.91-.91H46.093a4.979,4.979,0,0,1-2.548-.695V21.947a5.555,5.555,0,0,0-2.455-4.606V6.806a5,5,0,0,1,5-4.986H58.85A.911.911,0,0,0,58.85,0H46.093a6.823,6.823,0,0,0-6.825,6.806v9.734a5.581,5.581,0,0,0-1.3-.154H21.305a5.573,5.573,0,0,0-5.574,5.56v1.966a.911.911,0,0,0,1.821,0V21.947a3.751,3.751,0,0,1,3.753-3.739H37.971a3.751,3.751,0,0,1,3.754,3.739V32.529a.911.911,0,0,0,0,.241v5.791c0,.114-.007.228-.017.342H39.83a4.223,4.223,0,0,0-4.151,3.456.912.912,0,0,0-.236.132l-4.072,3.144V43.211a.91.91,0,0,0-.91-.91H21.305a3.751,3.751,0,0,1-3.753-3.739V29.375a.911.911,0,0,0-1.821,0v9.187a5.573,5.573,0,0,0,5.574,5.56H29.55v3.366a.924.924,0,0,0,1.467.721l4.593-3.546V54.9a4.22,4.22,0,0,0,4.22,4.21h5.587v2.124a.924.924,0,0,0,1.467.721l3.685-2.845h1.089a4.22,4.22,0,0,0,4.22-4.21V53.287a.911.911,0,0,0-1.821,0V54.9a2.4,2.4,0,0,1-2.4,2.389h-1.4a.91.91,0,0,0-.556.19l-2.464,1.9V58.2a.91.91,0,0,0-.91-.91h-6.5a2.4,2.4,0,0,1-2.4-2.389V43.113a2.4,2.4,0,0,1,2.4-2.389H51.656a2.4,2.4,0,0,1,2.4,2.389v4.469a.911.911,0,0,0,1.821,0V43.113a4.22,4.22,0,0,0-4.22-4.21H43.535c.007-.114.01-4.712.01-4.712a6.814,6.814,0,0,0,2.548.491h10.17v4.462a.924.924,0,0,0,1.464.723l6.779-5.185h2.722a6.823,6.823,0,0,0,6.825-6.807V6.806A6.823,6.823,0,0,0,67.227,0Z"/>
      <path id="Trazado_994724" data-name="Trazado 994724" d="M279.369,54.636a1.9,1.9,0,0,0-2.334,1.813A5.348,5.348,0,0,1,275.7,59.99l-2.508,2.838a.909.909,0,0,0-.763-.414h-4.9a.91.91,0,0,0-.91.91V74.341a.91.91,0,0,0,.91.91h4.9a.91.91,0,0,0,.828-.533,6.361,6.361,0,0,0,3.309.933h8.654a2.383,2.383,0,0,0,2.351-2.466c-.028-.584,0-8.427,0-8.6a2.356,2.356,0,0,0-2.351-2.354l-4.5-.013.186-.441a7.108,7.108,0,0,0-.375-6.255,1.855,1.855,0,0,0-1.161-.885Zm-7.854,18.795H268.44v-9.2h3.076Zm13.7-9.379a.534.534,0,0,1,.533.533c0,.173,0,.643,0,1.281-.013,3.519-.022,6.852,0,7.406a.533.533,0,0,1-.532.56h-8.654a4.533,4.533,0,0,1-2.843-1.007l-.383-.31v-7.1l3.725-4.216a7.168,7.168,0,0,0,1.794-4.746.051.051,0,0,1,.094-.025,5.277,5.277,0,0,1,.278,4.644l-.718,1.7a.91.91,0,0,0,.836,1.265Z" transform="translate(-220.434 -47.91)"/>
      <path id="Trazado_994725" data-name="Trazado 994725" d="M73.361,201.631a.91.91,0,1,0,0,1.821h2.684l-.5,3.032a.91.91,0,1,0,1.8.3l.55-3.329h2.2l-.5,3.032a.91.91,0,1,0,1.8.3l.55-3.329h3.653a.91.91,0,1,0,0-1.821H82.233l.367-2.221h2.985a.91.91,0,1,0,0-1.821H82.9l.5-3.032a.91.91,0,1,0-1.8-.3l-.55,3.329h-2.2l.5-3.032a.91.91,0,1,0-1.8-.3l-.55,3.329H73.361a.91.91,0,1,0,0,1.821h3.352l-.367,2.221Zm5.2-2.221h2.2l-.367,2.221h-2.2Z" transform="translate(-49.835 -170.011)"/>
      <path id="Trazado_994726" data-name="Trazado 994726" d="M225.107,369.153a3.061,3.061,0,0,0-2.694-.605,3.387,3.387,0,0,0-2.526,3.418,4.469,4.469,0,0,0,1.345,3.2,13.356,13.356,0,0,0,3.459,2.386.91.91,0,0,0,.853,0c2.884-1.529,4.8-3.064,4.8-5.586a3.365,3.365,0,0,0-2.616-3.4A3.053,3.053,0,0,0,225.107,369.153Zm3.421,2.812c0,1.36-.9,2.366-3.41,3.747-2.508-1.381-3.41-2.387-3.41-3.747a1.557,1.557,0,0,1,1.135-1.648,1.364,1.364,0,0,1,.321-.038,1.256,1.256,0,0,1,1.146.733.91.91,0,0,0,1.634-.032,1.183,1.183,0,0,1,1.4-.636A1.539,1.539,0,0,1,228.528,371.965Z" transform="translate(-179.375 -323.732)"/>
    </g>
  </g>
</svg>
